M48
; DRILL file {KiCad 8.0.5-dirty} date 2024-10-14T15:47:44+0300
; FORMAT={-:-/ absolute / metric / decimal}
; #@! TF.CreationDate,2024-10-14T15:47:44+03:00
; #@! TF.GenerationSoftware,Kicad,Pcbnew,8.0.5-dirty
; #@! TF.FileFunction,NonPlated,1,2,NPTH
FMAT,2
METRIC
; #@! TA.AperFunction,NonPlated,NPTH,ComponentDrill
T1C0.800
; #@! TA.AperFunction,NonPlated,NPTH,ComponentDrill
T2C1.702
; #@! TA.AperFunction,NonPlated,NPTH,ComponentDrill
T3C3.000
; #@! TA.AperFunction,NonPlated,NPTH,ComponentDrill
T4C3.429
%
G90
G05
T1
X208.798Y-56.897
X209.103Y-49.904
T2
X65.94Y-81.093
X68.061Y-98.363
X76.858Y-79.752
X78.979Y-97.023
X83.179Y-70.513
X85.3Y-87.783
X87.42Y-105.054
X94.097Y-69.173
X96.218Y-86.443
X98.338Y-103.713
X103.954Y-55.571
X104.865Y-72.947
X105.775Y-90.323
X114.939Y-54.995
X115.85Y-72.372
X116.76Y-89.748
X124.927Y-48.223
X124.927Y-65.623
X124.927Y-83.023
X135.927Y-48.223
X135.927Y-65.623
X135.927Y-83.023
X144.432Y-90.283
X145.191Y-72.9
X145.95Y-55.516
X155.422Y-90.763
X156.181Y-73.38
X156.94Y-55.996
X162.728Y-93.084
X163.487Y-75.701
X164.246Y-58.317
X172.655Y-127.049
X173.717Y-93.564
X174.476Y-76.18
X175.235Y-58.797
X183.645Y-127.529
X192.91Y-128.991
X203.56Y-131.745
T3
X70.674Y-74.517
X72.795Y-91.787
X75.905Y-76.091
X78.025Y-93.362
X87.913Y-63.937
X90.034Y-81.208
X92.154Y-98.478
X93.144Y-65.511
X95.265Y-82.782
X97.385Y-100.052
X109.135Y-49.341
X110.046Y-66.718
X110.956Y-84.094
X114.243Y-51.277
X115.154Y-68.653
X116.065Y-86.029
X130.427Y-42.273
X130.427Y-59.673
X130.427Y-77.073
X135.427Y-44.473
X135.427Y-61.873
X135.427Y-79.273
X150.187Y-84.579
X150.946Y-67.195
X151.705Y-49.812
X155.086Y-86.995
X155.845Y-69.611
X156.604Y-52.228
X168.482Y-87.38
X169.241Y-69.996
X170.0Y-52.613
X173.381Y-89.796
X174.14Y-72.412
X174.899Y-55.029
X178.41Y-121.345
X183.309Y-123.761
X199.725Y-124.608
X204.015Y-127.99
T4
X71.399Y-80.423
X73.52Y-97.693
X88.638Y-69.843
X90.759Y-87.113
X92.879Y-104.383
X109.447Y-55.283
X110.357Y-72.659
X111.268Y-90.036
X130.427Y-48.223
X130.427Y-65.623
X130.427Y-83.023
X149.927Y-90.523
X150.686Y-73.14
X151.445Y-55.756
X168.222Y-93.324
X168.981Y-75.94
X169.74Y-58.557
X178.15Y-127.289
X198.235Y-130.368
M30
