M48
; DRILL file {KiCad 8.0.5-dirty} date 2024-10-14T15:47:44+0300
; FORMAT={-:-/ absolute / metric / decimal}
; #@! TF.CreationDate,2024-10-14T15:47:44+03:00
; #@! TF.GenerationSoftware,Kicad,Pcbnew,8.0.5-dirty
; #@! TF.FileFunction,Plated,1,2,PTH
FMAT,2
METRIC
; #@! TA.AperFunction,Plated,PTH,ViaDrill
T1C0.400
; #@! TA.AperFunction,Plated,PTH,ComponentDrill
T2C0.900
; #@! TA.AperFunction,Plated,PTH,ComponentDrill
T3C1.000
; #@! TA.AperFunction,Plated,PTH,ComponentDrill
T4C1.270
; #@! TA.AperFunction,Plated,PTH,ComponentDrill
T5C2.200
%
G90
G05
T1
X61.6Y-65.7
X64.7Y-89.4
X69.0Y-115.1
X102.6Y-119.5
X140.5Y-99.0
X170.7Y-104.6
X192.5Y-97.5
X197.6Y-93.1
X204.5Y-56.2
X207.3Y-65.9
T3
X183.378Y-78.524
X183.489Y-75.987
X183.599Y-73.449
X183.71Y-70.912
X183.821Y-68.374
X183.932Y-65.836
X184.043Y-63.299
X184.153Y-60.761
X184.264Y-58.224
X184.375Y-55.686
X184.486Y-53.148
X184.597Y-50.611
X184.707Y-48.073
X185.915Y-78.635
X188.453Y-78.746
X190.991Y-78.857
X193.528Y-78.967
X196.066Y-79.078
X198.603Y-79.189
X198.714Y-76.652
X198.825Y-74.114
X198.936Y-71.576
X199.047Y-69.039
X199.157Y-66.501
X199.268Y-63.964
X199.379Y-61.426
X199.49Y-58.888
X199.601Y-56.351
X199.711Y-53.813
X199.822Y-51.276
X199.933Y-48.738
T4
X66.9Y-84.804
X69.02Y-102.074
X72.118Y-86.279
X74.239Y-103.549
X84.139Y-74.224
X86.259Y-91.494
X88.38Y-108.764
X89.357Y-75.699
X91.478Y-92.969
X93.598Y-110.239
X104.652Y-59.34
X105.563Y-76.716
X106.474Y-94.092
X109.755Y-61.175
X110.666Y-78.551
X111.577Y-95.927
X125.427Y-52.023
X125.427Y-69.423
X125.427Y-86.823
X130.427Y-54.123
X130.427Y-71.523
X130.427Y-88.923
X144.766Y-94.101
X145.525Y-76.718
X146.284Y-59.335
X149.67Y-96.418
X150.429Y-79.034
X151.188Y-61.651
X163.061Y-96.902
X163.82Y-79.519
X164.579Y-62.135
X167.965Y-99.218
X168.724Y-81.835
X169.483Y-64.451
X172.989Y-130.868
X177.893Y-133.184
X192.443Y-132.795
X196.758Y-136.08
T5
X69.754Y-67.023
X75.165Y-111.092
X104.981Y-129.093
X108.766Y-42.301
X130.427Y-96.023
X152.034Y-42.269
X189.707Y-114.781
X208.943Y-77.685
T2
X206.391Y-59.295G85X206.373Y-59.694
G05
X211.034Y-58.396G85X211.017Y-58.796
G05
X211.209Y-54.4G85X211.191Y-54.8
G05
X211.34Y-51.403G85X211.322Y-51.803
G05
M30
