G04 #@! TF.GenerationSoftware,KiCad,Pcbnew,8.0.5-dirty*
G04 #@! TF.CreationDate,2024-10-14T15:47:29+03:00*
G04 #@! TF.ProjectId,Kivipallur_left,4b697669-7061-46c6-9c75-725f6c656674,1*
G04 #@! TF.SameCoordinates,Original*
G04 #@! TF.FileFunction,Legend,Bot*
G04 #@! TF.FilePolarity,Positive*
%FSLAX46Y46*%
G04 Gerber Fmt 4.6, Leading zero omitted, Abs format (unit mm)*
G04 Created by KiCad (PCBNEW 8.0.5-dirty) date 2024-10-14 15:47:29*
%MOMM*%
%LPD*%
G01*
G04 APERTURE LIST*
G04 Aperture macros list*
%AMRoundRect*
0 Rectangle with rounded corners*
0 $1 Rounding radius*
0 $2 $3 $4 $5 $6 $7 $8 $9 X,Y pos of 4 corners*
0 Add a 4 corners polygon primitive as box body*
4,1,4,$2,$3,$4,$5,$6,$7,$8,$9,$2,$3,0*
0 Add four circle primitives for the rounded corners*
1,1,$1+$1,$2,$3*
1,1,$1+$1,$4,$5*
1,1,$1+$1,$6,$7*
1,1,$1+$1,$8,$9*
0 Add four rect primitives between the rounded corners*
20,1,$1+$1,$2,$3,$4,$5,0*
20,1,$1+$1,$4,$5,$6,$7,0*
20,1,$1+$1,$6,$7,$8,$9,0*
20,1,$1+$1,$8,$9,$2,$3,0*%
%AMHorizOval*
0 Thick line with rounded ends*
0 $1 width*
0 $2 $3 position (X,Y) of the first rounded end (center of the circle)*
0 $4 $5 position (X,Y) of the second rounded end (center of the circle)*
0 Add line between two ends*
20,1,$1,$2,$3,$4,$5,0*
0 Add two circle primitives to create the rounded ends*
1,1,$1,$2,$3*
1,1,$1,$4,$5*%
G04 Aperture macros list end*
%ADD10C,0.150000*%
%ADD11C,4.500000*%
%ADD12C,1.801800*%
%ADD13C,3.100000*%
%ADD14C,3.529000*%
%ADD15RoundRect,0.050000X-1.355468X-1.242057X1.242057X-1.355468X1.355468X1.242057X-1.242057X1.355468X0*%
%ADD16C,2.132000*%
%ADD17RoundRect,0.050000X-1.230182X-1.366255X1.366255X-1.230182X1.230182X1.366255X-1.366255X1.230182X0*%
%ADD18RoundRect,0.050000X-1.131880X-1.448740X1.448740X-1.131880X1.131880X1.448740X-1.448740X1.131880X0*%
%ADD19C,0.900000*%
%ADD20HorizOval,1.700000X-0.008724X-0.199810X0.008724X0.199810X0*%
%ADD21C,1.900000*%
%ADD22RoundRect,0.475000X-0.495267X-0.453829X0.453829X-0.495267X0.495267X0.453829X-0.453829X0.495267X0*%
%ADD23RoundRect,0.050000X-1.584086X-0.933098X0.933098X-1.584086X1.584086X0.933098X-0.933098X1.584086X0*%
%ADD24RoundRect,0.050000X-1.300000X-1.300000X1.300000X-1.300000X1.300000X1.300000X-1.300000X1.300000X0*%
G04 APERTURE END LIST*
D10*
X148112200Y-86239959D02*
X148589914Y-86761292D01*
X148264868Y-82743290D02*
X148786202Y-82265576D01*
X148589914Y-86761292D02*
X151087535Y-86870341D01*
X148786202Y-82265576D02*
X151783346Y-82396434D01*
X151783346Y-82396434D02*
X152261061Y-82917767D01*
X152217441Y-83916816D02*
X152261061Y-82917767D01*
X152490145Y-89133676D02*
X156985862Y-89329963D01*
X152520678Y-88434342D02*
X152490145Y-89133676D01*
X156985862Y-89329963D02*
X157007671Y-88830439D01*
X157164701Y-85233866D02*
X157190873Y-84634437D01*
X157190873Y-84634437D02*
X152695156Y-84438146D01*
X151087535Y-86870341D02*
G75*
G02*
X152520678Y-88434342I-65429J-1498572D01*
G01*
X152695156Y-84438146D02*
G75*
G02*
X152217444Y-83916816I21809J499521D01*
G01*
X149630155Y-51473081D02*
X150107869Y-51994414D01*
X149782823Y-47976412D02*
X150304157Y-47498698D01*
X150107869Y-51994414D02*
X152605490Y-52103463D01*
X150304157Y-47498698D02*
X153301301Y-47629556D01*
X153301301Y-47629556D02*
X153779016Y-48150889D01*
X153735396Y-49149938D02*
X153779016Y-48150889D01*
X154008100Y-54366798D02*
X158503817Y-54563085D01*
X154038633Y-53667464D02*
X154008100Y-54366798D01*
X158503817Y-54563085D02*
X158525626Y-54063561D01*
X158682656Y-50466988D02*
X158708828Y-49867559D01*
X158708828Y-49867559D02*
X154213111Y-49671268D01*
X152605490Y-52103463D02*
G75*
G02*
X154038633Y-53667464I-65429J-1498572D01*
G01*
X154213111Y-49671268D02*
G75*
G02*
X153735399Y-49149938I21809J499521D01*
G01*
X148871178Y-68856520D02*
X149348892Y-69377853D01*
X149023846Y-65359851D02*
X149545180Y-64882137D01*
X149348892Y-69377853D02*
X151846513Y-69486902D01*
X149545180Y-64882137D02*
X152542324Y-65012995D01*
X152542324Y-65012995D02*
X153020039Y-65534328D01*
X152976419Y-66533377D02*
X153020039Y-65534328D01*
X153249123Y-71750237D02*
X157744840Y-71946524D01*
X153279656Y-71050903D02*
X153249123Y-71750237D01*
X157744840Y-71946524D02*
X157766649Y-71447000D01*
X157923679Y-67850427D02*
X157949851Y-67250998D01*
X157949851Y-67250998D02*
X153454134Y-67054707D01*
X151846513Y-69486902D02*
G75*
G02*
X153279656Y-71050903I-65429J-1498572D01*
G01*
X153454134Y-67054707D02*
G75*
G02*
X152976422Y-66533377I21809J499521D01*
G01*
X107956944Y-65074599D02*
X108430091Y-64549117D01*
X108140120Y-68569803D02*
X108665603Y-69042950D01*
X108430091Y-64549117D02*
X111425979Y-64392109D01*
X108665603Y-69042950D02*
X111162174Y-68912110D01*
X111425979Y-64392109D02*
X111951462Y-64865256D01*
X112003798Y-65863885D02*
X111951462Y-64865256D01*
X112738625Y-70331550D02*
X112775260Y-71030591D01*
X112775260Y-71030591D02*
X117269093Y-70795079D01*
X117023114Y-66101520D02*
X112529281Y-66337032D01*
X117054515Y-66700698D02*
X117023114Y-66101520D01*
X117269093Y-70795079D02*
X117242925Y-70295764D01*
X111162174Y-68912110D02*
G75*
G02*
X112738624Y-70331550I78506J-1497944D01*
G01*
X112529281Y-66337032D02*
G75*
G02*
X112003798Y-65863885I-26168J499315D01*
G01*
X68475658Y-73023780D02*
X68910996Y-72466573D01*
X68902200Y-76497692D02*
X69459408Y-76933030D01*
X68910996Y-72466573D02*
X71888635Y-72100966D01*
X69459408Y-76933030D02*
X71940774Y-76628357D01*
X71888635Y-72100966D02*
X72445842Y-72536303D01*
X72567712Y-73528849D02*
X72445842Y-72536303D01*
X73612397Y-77934372D02*
X73697705Y-78629154D01*
X73697705Y-78629154D02*
X78164163Y-78080742D01*
X77591377Y-73415775D02*
X73124918Y-73964188D01*
X77664499Y-74011303D02*
X77591377Y-73415775D01*
X78164163Y-78080742D02*
X78103228Y-77584469D01*
X71940774Y-76628357D02*
G75*
G02*
X73612397Y-77934372I182804J-1488819D01*
G01*
X73124918Y-73964188D02*
G75*
G02*
X72567711Y-73528849I-60933J496274D01*
G01*
X167166426Y-71657213D02*
X167644140Y-72178546D01*
X167319094Y-68160544D02*
X167840428Y-67682830D01*
X167644140Y-72178546D02*
X170141761Y-72287595D01*
X167840428Y-67682830D02*
X170837572Y-67813688D01*
X170837572Y-67813688D02*
X171315287Y-68335021D01*
X171271667Y-69334070D02*
X171315287Y-68335021D01*
X171544371Y-74550930D02*
X176040088Y-74747217D01*
X171574904Y-73851596D02*
X171544371Y-74550930D01*
X176040088Y-74747217D02*
X176061897Y-74247693D01*
X176218927Y-70651120D02*
X176245099Y-70051691D01*
X176245099Y-70051691D02*
X171749382Y-69855400D01*
X170141761Y-72287595D02*
G75*
G02*
X171574904Y-73851596I-65429J-1498572D01*
G01*
X171749382Y-69855400D02*
G75*
G02*
X171271670Y-69334070I21809J499521D01*
G01*
X176335349Y-123006029D02*
X176813063Y-123527362D01*
X176488017Y-119509360D02*
X177009351Y-119031646D01*
X176813063Y-123527362D02*
X179310684Y-123636411D01*
X177009351Y-119031646D02*
X180006495Y-119162504D01*
X180006495Y-119162504D02*
X180484210Y-119683837D01*
X180440590Y-120682886D02*
X180484210Y-119683837D01*
X180713294Y-125899746D02*
X185209011Y-126096033D01*
X180743827Y-125200412D02*
X180713294Y-125899746D01*
X185209011Y-126096033D02*
X185230820Y-125596509D01*
X185387850Y-121999936D02*
X185414022Y-121400507D01*
X185414022Y-121400507D02*
X180918305Y-121204216D01*
X179310684Y-123636411D02*
G75*
G02*
X180743827Y-125200412I-65429J-1498572D01*
G01*
X180918305Y-121204216D02*
G75*
G02*
X180440593Y-120682886I21809J499521D01*
G01*
X70596185Y-90294083D02*
X71031523Y-89736876D01*
X71022727Y-93767995D02*
X71579935Y-94203333D01*
X71031523Y-89736876D02*
X74009162Y-89371269D01*
X71579935Y-94203333D02*
X74061301Y-93898660D01*
X74009162Y-89371269D02*
X74566369Y-89806606D01*
X74688239Y-90799152D02*
X74566369Y-89806606D01*
X75732924Y-95204675D02*
X75818232Y-95899457D01*
X75818232Y-95899457D02*
X80284690Y-95351045D01*
X79711904Y-90686078D02*
X75245445Y-91234491D01*
X79785026Y-91281606D02*
X79711904Y-90686078D01*
X80284690Y-95351045D02*
X80223755Y-94854772D01*
X74061301Y-93898660D02*
G75*
G02*
X75732924Y-95204675I182804J-1488819D01*
G01*
X75245445Y-91234491D02*
G75*
G02*
X74688238Y-90799152I-60933J496274D01*
G01*
X107046298Y-47698445D02*
X107519445Y-47172963D01*
X107229474Y-51193649D02*
X107754957Y-51666796D01*
X107519445Y-47172963D02*
X110515333Y-47015955D01*
X107754957Y-51666796D02*
X110251528Y-51535956D01*
X110515333Y-47015955D02*
X111040816Y-47489102D01*
X111093152Y-48487731D02*
X111040816Y-47489102D01*
X111827979Y-52955396D02*
X111864614Y-53654437D01*
X111864614Y-53654437D02*
X116358447Y-53418925D01*
X116112468Y-48725366D02*
X111618635Y-48960878D01*
X116143869Y-49324544D02*
X116112468Y-48725366D01*
X116358447Y-53418925D02*
X116332279Y-52919610D01*
X110251528Y-51535956D02*
G75*
G02*
X111827978Y-52955396I78506J-1497944D01*
G01*
X111618635Y-48960878D02*
G75*
G02*
X111093152Y-48487731I-26168J499315D01*
G01*
X85714805Y-62443996D02*
X86150143Y-61886789D01*
X86141347Y-65917908D02*
X86698555Y-66353246D01*
X86150143Y-61886789D02*
X89127782Y-61521182D01*
X86698555Y-66353246D02*
X89179921Y-66048573D01*
X89127782Y-61521182D02*
X89684989Y-61956519D01*
X89806859Y-62949065D02*
X89684989Y-61956519D01*
X90851544Y-67354588D02*
X90936852Y-68049370D01*
X90936852Y-68049370D02*
X95403310Y-67500958D01*
X94830524Y-62835991D02*
X90364065Y-63384404D01*
X94903646Y-63431519D02*
X94830524Y-62835991D01*
X95403310Y-67500958D02*
X95342375Y-67004685D01*
X89179921Y-66048573D02*
G75*
G02*
X90851544Y-67354588I182804J-1488819D01*
G01*
X90364065Y-63384404D02*
G75*
G02*
X89806858Y-62949065I-60933J496274D01*
G01*
X166407449Y-89040652D02*
X166885163Y-89561985D01*
X166560117Y-85543983D02*
X167081451Y-85066269D01*
X166885163Y-89561985D02*
X169382784Y-89671034D01*
X167081451Y-85066269D02*
X170078595Y-85197127D01*
X170078595Y-85197127D02*
X170556310Y-85718460D01*
X170512690Y-86717509D02*
X170556310Y-85718460D01*
X170785394Y-91934369D02*
X175281111Y-92130656D01*
X170815927Y-91235035D02*
X170785394Y-91934369D01*
X175281111Y-92130656D02*
X175302920Y-91631132D01*
X175459950Y-88034559D02*
X175486122Y-87435130D01*
X175486122Y-87435130D02*
X170990405Y-87238839D01*
X169382784Y-89671034D02*
G75*
G02*
X170815927Y-91235035I-65429J-1498572D01*
G01*
X170990405Y-87238839D02*
G75*
G02*
X170512693Y-86717509I21809J499521D01*
G01*
X87835332Y-79714299D02*
X88270670Y-79157092D01*
X88261874Y-83188211D02*
X88819082Y-83623549D01*
X88270670Y-79157092D02*
X91248309Y-78791485D01*
X88819082Y-83623549D02*
X91300448Y-83318876D01*
X91248309Y-78791485D02*
X91805516Y-79226822D01*
X91927386Y-80219368D02*
X91805516Y-79226822D01*
X92972071Y-84624891D02*
X93057379Y-85319673D01*
X93057379Y-85319673D02*
X97523837Y-84771261D01*
X96951051Y-80106294D02*
X92484592Y-80654707D01*
X97024173Y-80701822D02*
X96951051Y-80106294D01*
X97523837Y-84771261D02*
X97462902Y-84274988D01*
X91300448Y-83318876D02*
G75*
G02*
X92972071Y-84624891I182804J-1488819D01*
G01*
X92484592Y-80654707D02*
G75*
G02*
X91927385Y-80219368I-60933J496274D01*
G01*
X197350357Y-125801308D02*
X197709242Y-126410572D01*
X197709242Y-126410572D02*
X200129610Y-127036522D01*
X198226687Y-122412791D02*
X198835951Y-122053907D01*
X198835951Y-122053907D02*
X201740393Y-122805047D01*
X201030995Y-129542017D02*
X205387659Y-130668729D01*
X201206261Y-128864313D02*
X201030995Y-129542017D01*
X201740393Y-122805047D02*
X202099277Y-123414311D01*
X201848897Y-124382459D02*
X202099277Y-123414311D01*
X205387659Y-130668729D02*
X205512849Y-130184653D01*
X206414218Y-126699321D02*
X206564446Y-126118433D01*
X206564446Y-126118433D02*
X202207781Y-124991723D01*
X200129610Y-127036522D02*
G75*
G02*
X201206261Y-128864313I-375570J-1452221D01*
G01*
X202207781Y-124991723D02*
G75*
G02*
X201848897Y-124382459I125190J484074D01*
G01*
X128427095Y-75323200D02*
X128927095Y-74823200D01*
X128427095Y-78823200D02*
X128927095Y-79323200D01*
X128927095Y-74823200D02*
X131927095Y-74823200D01*
X128927095Y-79323200D02*
X131427095Y-79323200D01*
X131927095Y-74823200D02*
X132427095Y-75323200D01*
X132427095Y-76323200D02*
X132427095Y-75323200D01*
X132927095Y-80823200D02*
X132927095Y-81523200D01*
X132927095Y-81523200D02*
X137427095Y-81523200D01*
X137427095Y-76823200D02*
X132927095Y-76823200D01*
X137427095Y-77423200D02*
X137427095Y-76823200D01*
X137427095Y-81523200D02*
X137427095Y-81023200D01*
X131427095Y-79323200D02*
G75*
G02*
X132927095Y-80823200I0J-1500000D01*
G01*
X132927095Y-76823200D02*
G75*
G02*
X132427095Y-76323200I0J500000D01*
G01*
X89955858Y-96984602D02*
X90391196Y-96427395D01*
X90382400Y-100458514D02*
X90939608Y-100893852D01*
X90391196Y-96427395D02*
X93368835Y-96061788D01*
X90939608Y-100893852D02*
X93420974Y-100589179D01*
X93368835Y-96061788D02*
X93926042Y-96497125D01*
X94047912Y-97489671D02*
X93926042Y-96497125D01*
X95092597Y-101895194D02*
X95177905Y-102589976D01*
X95177905Y-102589976D02*
X99644363Y-102041564D01*
X99071577Y-97376597D02*
X94605118Y-97925010D01*
X99144699Y-97972125D02*
X99071577Y-97376597D01*
X99644363Y-102041564D02*
X99583428Y-101545291D01*
X93420974Y-100589179D02*
G75*
G02*
X95092597Y-101895194I182804J-1488819D01*
G01*
X94605118Y-97925010D02*
G75*
G02*
X94047911Y-97489671I-60933J496274D01*
G01*
X128427095Y-40523200D02*
X128927095Y-40023200D01*
X128427095Y-44023200D02*
X128927095Y-44523200D01*
X128927095Y-40023200D02*
X131927095Y-40023200D01*
X128927095Y-44523200D02*
X131427095Y-44523200D01*
X131927095Y-40023200D02*
X132427095Y-40523200D01*
X132427095Y-41523200D02*
X132427095Y-40523200D01*
X132927095Y-46023200D02*
X132927095Y-46723200D01*
X132927095Y-46723200D02*
X137427095Y-46723200D01*
X137427095Y-42023200D02*
X132927095Y-42023200D01*
X137427095Y-42623200D02*
X137427095Y-42023200D01*
X137427095Y-46723200D02*
X137427095Y-46223200D01*
X131427095Y-44523200D02*
G75*
G02*
X132927095Y-46023200I0J-1500000D01*
G01*
X132927095Y-42023200D02*
G75*
G02*
X132427095Y-41523200I0J500000D01*
G01*
X108867589Y-82450753D02*
X109340736Y-81925271D01*
X109050765Y-85945957D02*
X109576248Y-86419104D01*
X109340736Y-81925271D02*
X112336624Y-81768263D01*
X109576248Y-86419104D02*
X112072819Y-86288264D01*
X112336624Y-81768263D02*
X112862107Y-82241410D01*
X112914443Y-83240039D02*
X112862107Y-82241410D01*
X113649270Y-87707704D02*
X113685905Y-88406745D01*
X113685905Y-88406745D02*
X118179738Y-88171233D01*
X117933759Y-83477674D02*
X113439926Y-83713186D01*
X117965160Y-84076852D02*
X117933759Y-83477674D01*
X118179738Y-88171233D02*
X118153570Y-87671918D01*
X112072819Y-86288264D02*
G75*
G02*
X113649269Y-87707704I78506J-1497944D01*
G01*
X113439926Y-83713186D02*
G75*
G02*
X112914443Y-83240039I-26168J499315D01*
G01*
X167925404Y-54273774D02*
X168403118Y-54795107D01*
X168078072Y-50777105D02*
X168599406Y-50299391D01*
X168403118Y-54795107D02*
X170900739Y-54904156D01*
X168599406Y-50299391D02*
X171596550Y-50430249D01*
X171596550Y-50430249D02*
X172074265Y-50951582D01*
X172030645Y-51950631D02*
X172074265Y-50951582D01*
X172303349Y-57167491D02*
X176799066Y-57363778D01*
X172333882Y-56468157D02*
X172303349Y-57167491D01*
X176799066Y-57363778D02*
X176820875Y-56864254D01*
X176977905Y-53267681D02*
X177004077Y-52668252D01*
X177004077Y-52668252D02*
X172508360Y-52471961D01*
X170900739Y-54904156D02*
G75*
G02*
X172333882Y-56468157I-65429J-1498572D01*
G01*
X172508360Y-52471961D02*
G75*
G02*
X172030648Y-51950631I21809J499521D01*
G01*
X128427095Y-57923200D02*
X128927095Y-57423200D01*
X128427095Y-61423200D02*
X128927095Y-61923200D01*
X128927095Y-57423200D02*
X131927095Y-57423200D01*
X128927095Y-61923200D02*
X131427095Y-61923200D01*
X131927095Y-57423200D02*
X132427095Y-57923200D01*
X132427095Y-58923200D02*
X132427095Y-57923200D01*
X132927095Y-63423200D02*
X132927095Y-64123200D01*
X132927095Y-64123200D02*
X137427095Y-64123200D01*
X137427095Y-59423200D02*
X132927095Y-59423200D01*
X137427095Y-60023200D02*
X137427095Y-59423200D01*
X137427095Y-64123200D02*
X137427095Y-63623200D01*
X131427095Y-61923200D02*
G75*
G02*
X132927095Y-63423200I0J-1500000D01*
G01*
X132927095Y-59423200D02*
G75*
G02*
X132427095Y-58923200I0J500000D01*
G01*
%LPC*%
D11*
X75164907Y-111092323D03*
D12*
X144432330Y-90283293D03*
D13*
X150186630Y-84578863D03*
D14*
X149927095Y-90523200D03*
D13*
X155085909Y-86994866D03*
D12*
X155421860Y-90763107D03*
D15*
X146914747Y-84436010D03*
D16*
X149669741Y-96417585D03*
X144766100Y-94101486D03*
D15*
X158357792Y-87137720D03*
D12*
X145950285Y-55516415D03*
D13*
X151704585Y-49811985D03*
D14*
X151445050Y-55756322D03*
D13*
X156603864Y-52227988D03*
D12*
X156939815Y-55996229D03*
D15*
X148432702Y-49669132D03*
D16*
X151187696Y-61650707D03*
X146284055Y-59334608D03*
D15*
X159875747Y-52370842D03*
D11*
X130427095Y-96023200D03*
D12*
X145191308Y-72899854D03*
D13*
X150945608Y-67195424D03*
D14*
X150686073Y-73139761D03*
D13*
X155844887Y-69611427D03*
D12*
X156180838Y-73379668D03*
D15*
X147673725Y-67052571D03*
D16*
X150428719Y-79034146D03*
X145525078Y-76718047D03*
D15*
X159116770Y-69754281D03*
D12*
X104864728Y-72947223D03*
D13*
X110045791Y-66717529D03*
D14*
X110357190Y-72659375D03*
D13*
X115154078Y-68652834D03*
D12*
X115849652Y-72371527D03*
D17*
X106775279Y-66888930D03*
D16*
X110665972Y-78551289D03*
X105562919Y-76715847D03*
D17*
X118424590Y-68481434D03*
D12*
X65940140Y-81092928D03*
D13*
X70674021Y-74516997D03*
D14*
X71399144Y-80422647D03*
D13*
X75904865Y-76091252D03*
D12*
X76858148Y-79752366D03*
D18*
X67423433Y-74916119D03*
D16*
X72118173Y-86278669D03*
X66899517Y-84803669D03*
D18*
X79155453Y-75692130D03*
D12*
X163486556Y-75700547D03*
D13*
X169240856Y-69996117D03*
D14*
X168981321Y-75940454D03*
D13*
X174140135Y-72412120D03*
D12*
X174476086Y-76180361D03*
D15*
X165968973Y-69853264D03*
D16*
X168723967Y-81834839D03*
X163820326Y-79518740D03*
D15*
X177412018Y-72554974D03*
D12*
X172655479Y-127049363D03*
D13*
X178409779Y-121344933D03*
D14*
X178150244Y-127289270D03*
D13*
X183309058Y-123760936D03*
D12*
X183645009Y-127529177D03*
D15*
X175137896Y-121202080D03*
D16*
X177892890Y-133183655D03*
X172989249Y-130867556D03*
D15*
X186580941Y-123903790D03*
D12*
X68060667Y-98363231D03*
D13*
X72794548Y-91787300D03*
D14*
X73519671Y-97692950D03*
D13*
X78025392Y-93361555D03*
D12*
X78978675Y-97022669D03*
D18*
X69543960Y-92186422D03*
D16*
X74238700Y-103548972D03*
X69020044Y-102073972D03*
D18*
X81275980Y-92962433D03*
D12*
X103954082Y-55571069D03*
D13*
X109135145Y-49341375D03*
D14*
X109446544Y-55283221D03*
D13*
X114243432Y-51276680D03*
D12*
X114939006Y-54995373D03*
D17*
X105864633Y-49512776D03*
D16*
X109755326Y-61175135D03*
X104652273Y-59339693D03*
D17*
X117513944Y-51105280D03*
D19*
X209102838Y-49904053D03*
X208797502Y-56897391D03*
D20*
X211200000Y-54600000D03*
X211330858Y-51602855D03*
X206381919Y-59494496D03*
X211025522Y-58596192D03*
D21*
X184596615Y-50610917D03*
X184485822Y-53148499D03*
D22*
X184375029Y-55686082D03*
X184264236Y-58223664D03*
D21*
X184153442Y-60761247D03*
X184042649Y-63298829D03*
X183931856Y-65836412D03*
X183821063Y-68373994D03*
X183710269Y-70911576D03*
X183599476Y-73449159D03*
X183488683Y-75986741D03*
X183377890Y-78524324D03*
X199822110Y-51275676D03*
D22*
X199711317Y-53813259D03*
D21*
X199600524Y-56350841D03*
X199489731Y-58888424D03*
X199378937Y-61426006D03*
X199268144Y-63963588D03*
X199157351Y-66501171D03*
X199046558Y-69038753D03*
X198935764Y-71576336D03*
X198824971Y-74113918D03*
X198714178Y-76651501D03*
X198603385Y-79189083D03*
X185915472Y-78635117D03*
X188453055Y-78745910D03*
X190990637Y-78856704D03*
X193528220Y-78967497D03*
X196065802Y-79078290D03*
X199932904Y-48738094D03*
X184707409Y-48073334D03*
D12*
X83179287Y-70513144D03*
D13*
X87913168Y-63937213D03*
D14*
X88638291Y-69842863D03*
D13*
X93144012Y-65511468D03*
D12*
X94097295Y-69172582D03*
D18*
X84662580Y-64336335D03*
D16*
X89357320Y-75698885D03*
X84138664Y-74223885D03*
D18*
X96394600Y-65112346D03*
D11*
X152033912Y-42269171D03*
D12*
X162727579Y-93083986D03*
D13*
X168481879Y-87379556D03*
D14*
X168222344Y-93323893D03*
D13*
X173381158Y-89795559D03*
D12*
X173717109Y-93563800D03*
D15*
X165209996Y-87236703D03*
D16*
X167964990Y-99218278D03*
X163061349Y-96902179D03*
D15*
X176653041Y-89938413D03*
D12*
X85299814Y-87783447D03*
D13*
X90033695Y-81207516D03*
D14*
X90758818Y-87113166D03*
D13*
X95264539Y-82781771D03*
D12*
X96217822Y-86442885D03*
D18*
X86783107Y-81606638D03*
D16*
X91477847Y-92969188D03*
X86259191Y-91494188D03*
D18*
X98515127Y-82382649D03*
D12*
X192910244Y-128991198D03*
D13*
X199724817Y-124607810D03*
D14*
X198235056Y-130368288D03*
D13*
X204014719Y-127989634D03*
D12*
X203559868Y-131745378D03*
D23*
X196554134Y-123787815D03*
D16*
X196757814Y-136080359D03*
X192442874Y-132795349D03*
D23*
X207185403Y-128809629D03*
D11*
X69753908Y-67023274D03*
D12*
X124927095Y-83023200D03*
D13*
X130427095Y-77073200D03*
D14*
X130427095Y-83023200D03*
D13*
X135427095Y-79273200D03*
D12*
X135927095Y-83023200D03*
D24*
X127152095Y-77073200D03*
D16*
X130427095Y-88923200D03*
X125427095Y-86823200D03*
D24*
X138702095Y-79273200D03*
D11*
X104980863Y-129092845D03*
D12*
X87420340Y-105053750D03*
D13*
X92154221Y-98477819D03*
D14*
X92879344Y-104383469D03*
D13*
X97385065Y-100052074D03*
D12*
X98338348Y-103713188D03*
D18*
X88903633Y-98876941D03*
D16*
X93598373Y-110239491D03*
X88379717Y-108764491D03*
D18*
X100635653Y-99652952D03*
D11*
X108766176Y-42301037D03*
X208943250Y-77685230D03*
D12*
X124927095Y-48223200D03*
D13*
X130427095Y-42273200D03*
D14*
X130427095Y-48223200D03*
D13*
X135427095Y-44473200D03*
D12*
X135927095Y-48223200D03*
D24*
X127152095Y-42273200D03*
D16*
X130427095Y-54123200D03*
X125427095Y-52023200D03*
D24*
X138702095Y-44473200D03*
D12*
X105775373Y-90323377D03*
D13*
X110956436Y-84093683D03*
D14*
X111267835Y-90035529D03*
D13*
X116064723Y-86028988D03*
D12*
X116760297Y-89747681D03*
D17*
X107685924Y-84265084D03*
D16*
X111576617Y-95927443D03*
X106473564Y-94092001D03*
D17*
X119335235Y-85857588D03*
D11*
X189706827Y-114781456D03*
D12*
X164245534Y-58317108D03*
D13*
X169999834Y-52612678D03*
D14*
X169740299Y-58557015D03*
D13*
X174899113Y-55028681D03*
D12*
X175235064Y-58796922D03*
D15*
X166727951Y-52469825D03*
D16*
X169482945Y-64451400D03*
X164579304Y-62135301D03*
D15*
X178170996Y-55171535D03*
D12*
X124927095Y-65623200D03*
D13*
X130427095Y-59673200D03*
D14*
X130427095Y-65623200D03*
D13*
X135427095Y-61873200D03*
D12*
X135927095Y-65623200D03*
D24*
X127152095Y-59673200D03*
D16*
X130427095Y-71523200D03*
X125427095Y-69423200D03*
D24*
X138702095Y-61873200D03*
%LPD*%
M02*
