G04 #@! TF.GenerationSoftware,KiCad,Pcbnew,8.0.5-dirty*
G04 #@! TF.CreationDate,2024-10-14T15:47:29+03:00*
G04 #@! TF.ProjectId,Kivipallur_left,4b697669-7061-46c6-9c75-725f6c656674,1*
G04 #@! TF.SameCoordinates,Original*
G04 #@! TF.FileFunction,Legend,Top*
G04 #@! TF.FilePolarity,Positive*
%FSLAX46Y46*%
G04 Gerber Fmt 4.6, Leading zero omitted, Abs format (unit mm)*
G04 Created by KiCad (PCBNEW 8.0.5-dirty) date 2024-10-14 15:47:29*
%MOMM*%
%LPD*%
G01*
G04 APERTURE LIST*
G04 Aperture macros list*
%AMRoundRect*
0 Rectangle with rounded corners*
0 $1 Rounding radius*
0 $2 $3 $4 $5 $6 $7 $8 $9 X,Y pos of 4 corners*
0 Add a 4 corners polygon primitive as box body*
4,1,4,$2,$3,$4,$5,$6,$7,$8,$9,$2,$3,0*
0 Add four circle primitives for the rounded corners*
1,1,$1+$1,$2,$3*
1,1,$1+$1,$4,$5*
1,1,$1+$1,$6,$7*
1,1,$1+$1,$8,$9*
0 Add four rect primitives between the rounded corners*
20,1,$1+$1,$2,$3,$4,$5,0*
20,1,$1+$1,$4,$5,$6,$7,0*
20,1,$1+$1,$6,$7,$8,$9,0*
20,1,$1+$1,$8,$9,$2,$3,0*%
%AMHorizOval*
0 Thick line with rounded ends*
0 $1 width*
0 $2 $3 position (X,Y) of the first rounded end (center of the circle)*
0 $4 $5 position (X,Y) of the second rounded end (center of the circle)*
0 Add line between two ends*
20,1,$1,$2,$3,$4,$5,0*
0 Add two circle primitives to create the rounded ends*
1,1,$1,$2,$3*
1,1,$1,$4,$5*%
G04 Aperture macros list end*
%ADD10C,0.150000*%
%ADD11C,4.500000*%
%ADD12C,1.801800*%
%ADD13C,3.100000*%
%ADD14C,3.529000*%
%ADD15C,2.132000*%
%ADD16C,0.900000*%
%ADD17HorizOval,1.700000X-0.008724X-0.199810X0.008724X0.199810X0*%
%ADD18RoundRect,0.475000X-1.344458X-0.416752X1.303020X-0.532344X1.344458X0.416752X-1.303020X0.532344X0*%
%ADD19C,1.900000*%
%ADD20RoundRect,0.475000X-0.495267X-0.453829X0.453829X-0.495267X0.495267X0.453829X-0.453829X0.495267X0*%
%ADD21RoundRect,0.475000X0.416752X-1.344458X0.532344X1.303020X-0.416752X1.344458X-0.532344X-1.303020X0*%
%ADD22RoundRect,0.475000X1.344458X0.416752X-1.303020X0.532344X-1.344458X-0.416752X1.303020X-0.532344X0*%
G04 APERTURE END LIST*
D10*
X186405190Y-52418845D02*
X185834305Y-52393919D01*
X186119748Y-52406382D02*
X186163367Y-51407334D01*
X186163367Y-51407334D02*
X186061988Y-51545901D01*
X186061988Y-51545901D02*
X185962687Y-51636894D01*
X185962687Y-51636894D02*
X185865462Y-51680313D01*
X142628422Y-97211202D02*
X142672041Y-96212154D01*
X142628422Y-97211202D02*
X143627470Y-97254821D01*
X143195474Y-84223575D02*
X143239093Y-83224527D01*
X144238141Y-83268146D02*
X143239093Y-83224527D01*
X155616049Y-97778254D02*
X156615097Y-97821873D01*
X156658716Y-96822825D02*
X156615097Y-97821873D01*
X157225768Y-83835198D02*
X156226720Y-83791579D01*
X157225768Y-83835198D02*
X157182149Y-84834246D01*
X144146377Y-62444324D02*
X144189996Y-61445276D01*
X144146377Y-62444324D02*
X145145425Y-62487943D01*
X144713429Y-49456697D02*
X144757048Y-48457649D01*
X145756096Y-48501268D02*
X144757048Y-48457649D01*
X157134004Y-63011376D02*
X158133052Y-63054995D01*
X158176671Y-62055947D02*
X158133052Y-63054995D01*
X158743723Y-49068320D02*
X157744675Y-49024701D01*
X158743723Y-49068320D02*
X158700104Y-50067368D01*
X143387400Y-79827763D02*
X143431019Y-78828715D01*
X143387400Y-79827763D02*
X144386448Y-79871382D01*
X143954452Y-66840136D02*
X143998071Y-65841088D01*
X144997119Y-65884707D02*
X143998071Y-65841088D01*
X156375027Y-80394815D02*
X157374075Y-80438434D01*
X157417694Y-79439386D02*
X157374075Y-80438434D01*
X157984746Y-66451759D02*
X156985698Y-66408140D01*
X157984746Y-66451759D02*
X157941127Y-67450807D01*
X103052771Y-67033949D02*
X103000432Y-66035320D01*
X103733135Y-80016133D02*
X103680799Y-79017504D01*
X103733135Y-80016133D02*
X104731764Y-79963794D01*
X103999061Y-65982984D02*
X103000432Y-66035320D01*
X116715319Y-79335766D02*
X117713948Y-79283430D01*
X116981245Y-65302617D02*
X115982616Y-65354956D01*
X116981245Y-65302617D02*
X117033581Y-66301246D01*
X117661609Y-78284801D02*
X117713948Y-79283430D01*
X63720105Y-75320455D02*
X63598237Y-74327909D01*
X64590782Y-74206040D02*
X63598237Y-74327909D01*
X65304406Y-88223554D02*
X65182537Y-87231009D01*
X65304406Y-88223554D02*
X66296952Y-88101686D01*
X77493882Y-72621740D02*
X76501336Y-72743608D01*
X77493882Y-72621740D02*
X77615751Y-73614285D01*
X78207506Y-86639254D02*
X79200051Y-86517385D01*
X79078183Y-85524839D02*
X79200051Y-86517385D01*
X161682648Y-82628456D02*
X161726267Y-81629408D01*
X161682648Y-82628456D02*
X162681696Y-82672075D01*
X162249700Y-69640829D02*
X162293319Y-68641781D01*
X163292367Y-68685400D02*
X162293319Y-68641781D01*
X174670275Y-83195508D02*
X175669323Y-83239127D01*
X175712942Y-82240079D02*
X175669323Y-83239127D01*
X176279994Y-69252452D02*
X175280946Y-69208833D01*
X176279994Y-69252452D02*
X176236375Y-70251500D01*
X170851571Y-133977272D02*
X170895190Y-132978224D01*
X170851571Y-133977272D02*
X171850619Y-134020891D01*
X171418623Y-120989645D02*
X171462242Y-119990597D01*
X172461290Y-120034216D02*
X171462242Y-119990597D01*
X183839198Y-134544324D02*
X184838246Y-134587943D01*
X184881865Y-133588895D02*
X184838246Y-134587943D01*
X185448917Y-120601268D02*
X184449869Y-120557649D01*
X185448917Y-120601268D02*
X185405298Y-121600316D01*
X65840632Y-92590758D02*
X65718764Y-91598212D01*
X66711309Y-91476343D02*
X65718764Y-91598212D01*
X67424933Y-105493857D02*
X67303064Y-104501312D01*
X67424933Y-105493857D02*
X68417479Y-105371989D01*
X79614409Y-89892043D02*
X78621863Y-90013911D01*
X79614409Y-89892043D02*
X79736278Y-90884588D01*
X80328033Y-103909557D02*
X81320578Y-103787688D01*
X81198710Y-102795142D02*
X81320578Y-103787688D01*
X102142125Y-49657795D02*
X102089786Y-48659166D01*
X102822489Y-62639979D02*
X102770153Y-61641350D01*
X102822489Y-62639979D02*
X103821118Y-62587640D01*
X103088415Y-48606830D02*
X102089786Y-48659166D01*
X115804673Y-61959612D02*
X116803302Y-61907276D01*
X116070599Y-47926463D02*
X115071970Y-47978802D01*
X116070599Y-47926463D02*
X116122935Y-48925092D01*
X116750963Y-60908647D02*
X116803302Y-61907276D01*
X206125532Y-48172537D02*
X205597737Y-60261020D01*
X211691931Y-60527099D02*
X205597737Y-60261020D01*
X212219726Y-48438615D02*
X206125532Y-48172537D01*
X212219726Y-48438615D02*
X211691931Y-60527099D01*
X184712437Y-80053992D02*
X183313769Y-79992925D01*
X198539264Y-80657684D02*
X197140597Y-80596617D01*
X183313769Y-79992925D02*
G75*
G02*
X182294092Y-79517442I64114J1468587D01*
G01*
X199596502Y-80272881D02*
G75*
G02*
X198539264Y-80657684I-993117J1083798D01*
G01*
X80959252Y-64740671D02*
X80837384Y-63748125D01*
X81829929Y-63626256D02*
X80837384Y-63748125D01*
X82543553Y-77643770D02*
X82421684Y-76651225D01*
X82543553Y-77643770D02*
X83536099Y-77521902D01*
X94733029Y-62041956D02*
X93740483Y-62163824D01*
X94733029Y-62041956D02*
X94854898Y-63034501D01*
X95446653Y-76059470D02*
X96439198Y-75937601D01*
X96317330Y-74945055D02*
X96439198Y-75937601D01*
X160923671Y-100011895D02*
X160967290Y-99012847D01*
X160923671Y-100011895D02*
X161922719Y-100055514D01*
X161490723Y-87024268D02*
X161534342Y-86025220D01*
X162533390Y-86068839D02*
X161534342Y-86025220D01*
X173911298Y-100578947D02*
X174910346Y-100622566D01*
X174953965Y-99623518D02*
X174910346Y-100622566D01*
X175521017Y-86635891D02*
X174521969Y-86592272D01*
X175521017Y-86635891D02*
X175477398Y-87634939D01*
X83079779Y-82010974D02*
X82957911Y-81018428D01*
X83950456Y-80896559D02*
X82957911Y-81018428D01*
X84664080Y-94914073D02*
X84542211Y-93921528D01*
X84664080Y-94914073D02*
X85656626Y-94792205D01*
X96853556Y-79312259D02*
X95861010Y-79434127D01*
X96853556Y-79312259D02*
X96975425Y-80304804D01*
X97567180Y-93329773D02*
X98559725Y-93207904D01*
X98437857Y-92215358D02*
X98559725Y-93207904D01*
X189705362Y-135392661D02*
X189955742Y-134424514D01*
X189705362Y-135392661D02*
X190673510Y-135643041D01*
X192960303Y-122806742D02*
X193210683Y-121838594D01*
X194178830Y-122088974D02*
X193210683Y-121838594D01*
X202291282Y-138647602D02*
X203259429Y-138897982D01*
X203509809Y-137929834D02*
X203259429Y-138897982D01*
X206764750Y-125343915D02*
X205796602Y-125093535D01*
X206764750Y-125343915D02*
X206514370Y-126312062D01*
X123427095Y-77023200D02*
X123427095Y-76023200D01*
X123427095Y-90023200D02*
X123427095Y-89023200D01*
X123427095Y-90023200D02*
X124427095Y-90023200D01*
X124427095Y-76023200D02*
X123427095Y-76023200D01*
X136427095Y-90023200D02*
X137427095Y-90023200D01*
X137427095Y-76023200D02*
X136427095Y-76023200D01*
X137427095Y-76023200D02*
X137427095Y-77023200D01*
X137427095Y-89023200D02*
X137427095Y-90023200D01*
X85200305Y-99281277D02*
X85078437Y-98288731D01*
X86070982Y-98166862D02*
X85078437Y-98288731D01*
X86784606Y-112184376D02*
X86662737Y-111191831D01*
X86784606Y-112184376D02*
X87777152Y-112062508D01*
X98974082Y-96582562D02*
X97981536Y-96704430D01*
X98974082Y-96582562D02*
X99095951Y-97575107D01*
X99687706Y-110600076D02*
X100680251Y-110478207D01*
X100558383Y-109485661D02*
X100680251Y-110478207D01*
X123427095Y-42223200D02*
X123427095Y-41223200D01*
X123427095Y-55223200D02*
X123427095Y-54223200D01*
X123427095Y-55223200D02*
X124427095Y-55223200D01*
X124427095Y-41223200D02*
X123427095Y-41223200D01*
X136427095Y-55223200D02*
X137427095Y-55223200D01*
X137427095Y-41223200D02*
X136427095Y-41223200D01*
X137427095Y-41223200D02*
X137427095Y-42223200D01*
X137427095Y-54223200D02*
X137427095Y-55223200D01*
X103963416Y-84410103D02*
X103911077Y-83411474D01*
X104643780Y-97392287D02*
X104591444Y-96393658D01*
X104643780Y-97392287D02*
X105642409Y-97339948D01*
X104909706Y-83359138D02*
X103911077Y-83411474D01*
X117625964Y-96711920D02*
X118624593Y-96659584D01*
X117891890Y-82678771D02*
X116893261Y-82731110D01*
X117891890Y-82678771D02*
X117944226Y-83677400D01*
X118572254Y-95660955D02*
X118624593Y-96659584D01*
X162441626Y-65245017D02*
X162485245Y-64245969D01*
X162441626Y-65245017D02*
X163440674Y-65288636D01*
X163008678Y-52257390D02*
X163052297Y-51258342D01*
X164051345Y-51301961D02*
X163052297Y-51258342D01*
X175429253Y-65812069D02*
X176428301Y-65855688D01*
X176471920Y-64856640D02*
X176428301Y-65855688D01*
X177038972Y-51869013D02*
X176039924Y-51825394D01*
X177038972Y-51869013D02*
X176995353Y-52868061D01*
X123427095Y-59623200D02*
X123427095Y-58623200D01*
X123427095Y-72623200D02*
X123427095Y-71623200D01*
X123427095Y-72623200D02*
X124427095Y-72623200D01*
X124427095Y-58623200D02*
X123427095Y-58623200D01*
X136427095Y-72623200D02*
X137427095Y-72623200D01*
X137427095Y-58623200D02*
X136427095Y-58623200D01*
X137427095Y-58623200D02*
X137427095Y-59623200D01*
X137427095Y-71623200D02*
X137427095Y-72623200D01*
%LPC*%
D11*
X75164907Y-111092323D03*
D12*
X144432330Y-90283293D03*
D13*
X150186630Y-84578863D03*
D14*
X149927095Y-90523200D03*
D13*
X155085909Y-86994866D03*
D12*
X155421860Y-90763107D03*
D15*
X149669741Y-96417585D03*
X144766100Y-94101486D03*
D12*
X145950285Y-55516415D03*
D13*
X151704585Y-49811985D03*
D14*
X151445050Y-55756322D03*
D13*
X156603864Y-52227988D03*
D12*
X156939815Y-55996229D03*
D15*
X151187696Y-61650707D03*
X146284055Y-59334608D03*
D11*
X130427095Y-96023200D03*
D12*
X145191308Y-72899854D03*
D13*
X150945608Y-67195424D03*
D14*
X150686073Y-73139761D03*
D13*
X155844887Y-69611427D03*
D12*
X156180838Y-73379668D03*
D15*
X150428719Y-79034146D03*
X145525078Y-76718047D03*
D12*
X104864728Y-72947223D03*
D13*
X110045791Y-66717529D03*
D14*
X110357190Y-72659375D03*
D13*
X115154078Y-68652834D03*
D12*
X115849652Y-72371527D03*
D15*
X110665972Y-78551289D03*
X105562919Y-76715847D03*
D12*
X65940140Y-81092928D03*
D13*
X70674021Y-74516997D03*
D14*
X71399144Y-80422647D03*
D13*
X75904865Y-76091252D03*
D12*
X76858148Y-79752366D03*
D15*
X72118173Y-86278669D03*
X66899517Y-84803669D03*
D12*
X163486556Y-75700547D03*
D13*
X169240856Y-69996117D03*
D14*
X168981321Y-75940454D03*
D13*
X174140135Y-72412120D03*
D12*
X174476086Y-76180361D03*
D15*
X168723967Y-81834839D03*
X163820326Y-79518740D03*
D12*
X172655479Y-127049363D03*
D13*
X178409779Y-121344933D03*
D14*
X178150244Y-127289270D03*
D13*
X183309058Y-123760936D03*
D12*
X183645009Y-127529177D03*
D15*
X177892890Y-133183655D03*
X172989249Y-130867556D03*
D12*
X68060667Y-98363231D03*
D13*
X72794548Y-91787300D03*
D14*
X73519671Y-97692950D03*
D13*
X78025392Y-93361555D03*
D12*
X78978675Y-97022669D03*
D15*
X74238700Y-103548972D03*
X69020044Y-102073972D03*
D12*
X103954082Y-55571069D03*
D13*
X109135145Y-49341375D03*
D14*
X109446544Y-55283221D03*
D13*
X114243432Y-51276680D03*
D12*
X114939006Y-54995373D03*
D15*
X109755326Y-61175135D03*
X104652273Y-59339693D03*
D16*
X209102838Y-49904053D03*
X208797502Y-56897391D03*
D17*
X211200000Y-54600000D03*
X211330858Y-51602855D03*
X206381919Y-59494496D03*
X211025522Y-58596192D03*
D18*
X183297853Y-50554211D03*
D19*
X184596615Y-50610917D03*
D18*
X183187059Y-53091794D03*
D19*
X184485822Y-53148499D03*
D18*
X183076266Y-55629376D03*
D20*
X184375029Y-55686082D03*
D18*
X182965473Y-58166959D03*
D20*
X184264236Y-58223664D03*
D18*
X182854680Y-60704541D03*
D19*
X184153442Y-60761247D03*
D18*
X182743886Y-63242124D03*
D19*
X184042649Y-63298829D03*
D18*
X182633093Y-65779706D03*
D19*
X183931856Y-65836412D03*
D18*
X182522300Y-68317289D03*
D19*
X183821063Y-68373994D03*
D18*
X182411507Y-70854871D03*
D19*
X183710269Y-70911576D03*
D18*
X182300715Y-73392454D03*
D19*
X183599476Y-73449159D03*
D18*
X182189920Y-75930036D03*
D19*
X183488683Y-75986741D03*
D18*
X182079127Y-78467619D03*
D19*
X183377890Y-78524324D03*
X199822110Y-51275676D03*
D18*
X201120873Y-51332381D03*
D20*
X199711317Y-53813259D03*
D18*
X201010080Y-53869964D03*
D19*
X199600524Y-56350841D03*
D18*
X200899285Y-56407546D03*
D19*
X199489731Y-58888424D03*
D18*
X200788493Y-58945129D03*
D19*
X199378937Y-61426006D03*
D18*
X200677700Y-61482711D03*
D19*
X199268144Y-63963588D03*
D18*
X200566907Y-64020294D03*
D19*
X199157351Y-66501171D03*
D18*
X200456114Y-66557876D03*
D19*
X199046558Y-69038753D03*
D18*
X200345320Y-69095459D03*
D19*
X198935764Y-71576336D03*
D18*
X200234527Y-71633041D03*
D19*
X198824971Y-74113918D03*
D18*
X200123734Y-74170624D03*
D19*
X198714178Y-76651501D03*
D18*
X200012941Y-76708206D03*
D19*
X198603385Y-79189083D03*
D18*
X199902147Y-79245789D03*
D19*
X185915472Y-78635117D03*
D21*
X185858767Y-79933880D03*
D19*
X188453055Y-78745910D03*
D21*
X188396349Y-80044673D03*
D19*
X190990637Y-78856704D03*
D21*
X190933932Y-80155466D03*
D19*
X193528220Y-78967497D03*
D21*
X193471514Y-80266260D03*
D19*
X196065802Y-79078290D03*
D21*
X196009097Y-80377053D03*
D19*
X199932904Y-48738094D03*
D22*
X201231666Y-48794799D03*
D18*
X183408646Y-48016629D03*
D19*
X184707409Y-48073334D03*
D12*
X83179287Y-70513144D03*
D13*
X87913168Y-63937213D03*
D14*
X88638291Y-69842863D03*
D13*
X93144012Y-65511468D03*
D12*
X94097295Y-69172582D03*
D15*
X89357320Y-75698885D03*
X84138664Y-74223885D03*
D11*
X152033912Y-42269171D03*
D12*
X162727579Y-93083986D03*
D13*
X168481879Y-87379556D03*
D14*
X168222344Y-93323893D03*
D13*
X173381158Y-89795559D03*
D12*
X173717109Y-93563800D03*
D15*
X167964990Y-99218278D03*
X163061349Y-96902179D03*
D12*
X85299814Y-87783447D03*
D13*
X90033695Y-81207516D03*
D14*
X90758818Y-87113166D03*
D13*
X95264539Y-82781771D03*
D12*
X96217822Y-86442885D03*
D15*
X91477847Y-92969188D03*
X86259191Y-91494188D03*
D12*
X192910244Y-128991198D03*
D13*
X199724817Y-124607810D03*
D14*
X198235056Y-130368288D03*
D13*
X204014719Y-127989634D03*
D12*
X203559868Y-131745378D03*
D15*
X196757814Y-136080359D03*
X192442874Y-132795349D03*
D11*
X69753908Y-67023274D03*
D12*
X124927095Y-83023200D03*
D13*
X130427095Y-77073200D03*
D14*
X130427095Y-83023200D03*
D13*
X135427095Y-79273200D03*
D12*
X135927095Y-83023200D03*
D15*
X130427095Y-88923200D03*
X125427095Y-86823200D03*
D11*
X104980863Y-129092845D03*
D12*
X87420340Y-105053750D03*
D13*
X92154221Y-98477819D03*
D14*
X92879344Y-104383469D03*
D13*
X97385065Y-100052074D03*
D12*
X98338348Y-103713188D03*
D15*
X93598373Y-110239491D03*
X88379717Y-108764491D03*
D11*
X108766176Y-42301037D03*
X208943250Y-77685230D03*
D12*
X124927095Y-48223200D03*
D13*
X130427095Y-42273200D03*
D14*
X130427095Y-48223200D03*
D13*
X135427095Y-44473200D03*
D12*
X135927095Y-48223200D03*
D15*
X130427095Y-54123200D03*
X125427095Y-52023200D03*
D12*
X105775373Y-90323377D03*
D13*
X110956436Y-84093683D03*
D14*
X111267835Y-90035529D03*
D13*
X116064723Y-86028988D03*
D12*
X116760297Y-89747681D03*
D15*
X111576617Y-95927443D03*
X106473564Y-94092001D03*
D11*
X189706827Y-114781456D03*
D12*
X164245534Y-58317108D03*
D13*
X169999834Y-52612678D03*
D14*
X169740299Y-58557015D03*
D13*
X174899113Y-55028681D03*
D12*
X175235064Y-58796922D03*
D15*
X169482945Y-64451400D03*
X164579304Y-62135301D03*
D12*
X124927095Y-65623200D03*
D13*
X130427095Y-59673200D03*
D14*
X130427095Y-65623200D03*
D13*
X135427095Y-61873200D03*
D12*
X135927095Y-65623200D03*
D15*
X130427095Y-71523200D03*
X125427095Y-69423200D03*
%LPD*%
M02*
