G04 #@! TF.GenerationSoftware,KiCad,Pcbnew,8.0.5-dirty*
G04 #@! TF.CreationDate,2024-10-14T15:47:29+03:00*
G04 #@! TF.ProjectId,Kivipallur_left,4b697669-7061-46c6-9c75-725f6c656674,1*
G04 #@! TF.SameCoordinates,Original*
G04 #@! TF.FileFunction,Soldermask,Bot*
G04 #@! TF.FilePolarity,Negative*
%FSLAX46Y46*%
G04 Gerber Fmt 4.6, Leading zero omitted, Abs format (unit mm)*
G04 Created by KiCad (PCBNEW 8.0.5-dirty) date 2024-10-14 15:47:29*
%MOMM*%
%LPD*%
G01*
G04 APERTURE LIST*
G04 Aperture macros list*
%AMRoundRect*
0 Rectangle with rounded corners*
0 $1 Rounding radius*
0 $2 $3 $4 $5 $6 $7 $8 $9 X,Y pos of 4 corners*
0 Add a 4 corners polygon primitive as box body*
4,1,4,$2,$3,$4,$5,$6,$7,$8,$9,$2,$3,0*
0 Add four circle primitives for the rounded corners*
1,1,$1+$1,$2,$3*
1,1,$1+$1,$4,$5*
1,1,$1+$1,$6,$7*
1,1,$1+$1,$8,$9*
0 Add four rect primitives between the rounded corners*
20,1,$1+$1,$2,$3,$4,$5,0*
20,1,$1+$1,$4,$5,$6,$7,0*
20,1,$1+$1,$6,$7,$8,$9,0*
20,1,$1+$1,$8,$9,$2,$3,0*%
%AMHorizOval*
0 Thick line with rounded ends*
0 $1 width*
0 $2 $3 position (X,Y) of the first rounded end (center of the circle)*
0 $4 $5 position (X,Y) of the second rounded end (center of the circle)*
0 Add line between two ends*
20,1,$1,$2,$3,$4,$5,0*
0 Add two circle primitives to create the rounded ends*
1,1,$1,$2,$3*
1,1,$1,$4,$5*%
G04 Aperture macros list end*
%ADD10C,4.500000*%
%ADD11C,1.801800*%
%ADD12C,3.100000*%
%ADD13C,3.529000*%
%ADD14RoundRect,0.050000X-1.355468X-1.242057X1.242057X-1.355468X1.355468X1.242057X-1.242057X1.355468X0*%
%ADD15C,2.132000*%
%ADD16RoundRect,0.050000X-1.230182X-1.366255X1.366255X-1.230182X1.230182X1.366255X-1.366255X1.230182X0*%
%ADD17RoundRect,0.050000X-1.131880X-1.448740X1.448740X-1.131880X1.131880X1.448740X-1.448740X1.131880X0*%
%ADD18C,0.900000*%
%ADD19HorizOval,1.700000X-0.008724X-0.199810X0.008724X0.199810X0*%
%ADD20C,1.900000*%
%ADD21RoundRect,0.475000X-0.495267X-0.453829X0.453829X-0.495267X0.495267X0.453829X-0.453829X0.495267X0*%
%ADD22RoundRect,0.050000X-1.584086X-0.933098X0.933098X-1.584086X1.584086X0.933098X-0.933098X1.584086X0*%
%ADD23RoundRect,0.050000X-1.300000X-1.300000X1.300000X-1.300000X1.300000X1.300000X-1.300000X1.300000X0*%
G04 APERTURE END LIST*
D10*
X75164907Y-111092323D03*
D11*
X144432330Y-90283293D03*
D12*
X150186630Y-84578863D03*
D13*
X149927095Y-90523200D03*
D12*
X155085909Y-86994866D03*
D11*
X155421860Y-90763107D03*
D14*
X146914747Y-84436010D03*
D15*
X149669741Y-96417585D03*
X144766100Y-94101486D03*
D14*
X158357792Y-87137720D03*
D11*
X145950285Y-55516415D03*
D12*
X151704585Y-49811985D03*
D13*
X151445050Y-55756322D03*
D12*
X156603864Y-52227988D03*
D11*
X156939815Y-55996229D03*
D14*
X148432702Y-49669132D03*
D15*
X151187696Y-61650707D03*
X146284055Y-59334608D03*
D14*
X159875747Y-52370842D03*
D10*
X130427095Y-96023200D03*
D11*
X145191308Y-72899854D03*
D12*
X150945608Y-67195424D03*
D13*
X150686073Y-73139761D03*
D12*
X155844887Y-69611427D03*
D11*
X156180838Y-73379668D03*
D14*
X147673725Y-67052571D03*
D15*
X150428719Y-79034146D03*
X145525078Y-76718047D03*
D14*
X159116770Y-69754281D03*
D11*
X104864728Y-72947223D03*
D12*
X110045791Y-66717529D03*
D13*
X110357190Y-72659375D03*
D12*
X115154078Y-68652834D03*
D11*
X115849652Y-72371527D03*
D16*
X106775279Y-66888930D03*
D15*
X110665972Y-78551289D03*
X105562919Y-76715847D03*
D16*
X118424590Y-68481434D03*
D11*
X65940140Y-81092928D03*
D12*
X70674021Y-74516997D03*
D13*
X71399144Y-80422647D03*
D12*
X75904865Y-76091252D03*
D11*
X76858148Y-79752366D03*
D17*
X67423433Y-74916119D03*
D15*
X72118173Y-86278669D03*
X66899517Y-84803669D03*
D17*
X79155453Y-75692130D03*
D11*
X163486556Y-75700547D03*
D12*
X169240856Y-69996117D03*
D13*
X168981321Y-75940454D03*
D12*
X174140135Y-72412120D03*
D11*
X174476086Y-76180361D03*
D14*
X165968973Y-69853264D03*
D15*
X168723967Y-81834839D03*
X163820326Y-79518740D03*
D14*
X177412018Y-72554974D03*
D11*
X172655479Y-127049363D03*
D12*
X178409779Y-121344933D03*
D13*
X178150244Y-127289270D03*
D12*
X183309058Y-123760936D03*
D11*
X183645009Y-127529177D03*
D14*
X175137896Y-121202080D03*
D15*
X177892890Y-133183655D03*
X172989249Y-130867556D03*
D14*
X186580941Y-123903790D03*
D11*
X68060667Y-98363231D03*
D12*
X72794548Y-91787300D03*
D13*
X73519671Y-97692950D03*
D12*
X78025392Y-93361555D03*
D11*
X78978675Y-97022669D03*
D17*
X69543960Y-92186422D03*
D15*
X74238700Y-103548972D03*
X69020044Y-102073972D03*
D17*
X81275980Y-92962433D03*
D11*
X103954082Y-55571069D03*
D12*
X109135145Y-49341375D03*
D13*
X109446544Y-55283221D03*
D12*
X114243432Y-51276680D03*
D11*
X114939006Y-54995373D03*
D16*
X105864633Y-49512776D03*
D15*
X109755326Y-61175135D03*
X104652273Y-59339693D03*
D16*
X117513944Y-51105280D03*
D18*
X209102838Y-49904053D03*
X208797502Y-56897391D03*
D19*
X211200000Y-54600000D03*
X211330858Y-51602855D03*
X206381919Y-59494496D03*
X211025522Y-58596192D03*
D20*
X184596615Y-50610917D03*
X184485822Y-53148499D03*
D21*
X184375029Y-55686082D03*
X184264236Y-58223664D03*
D20*
X184153442Y-60761247D03*
X184042649Y-63298829D03*
X183931856Y-65836412D03*
X183821063Y-68373994D03*
X183710269Y-70911576D03*
X183599476Y-73449159D03*
X183488683Y-75986741D03*
X183377890Y-78524324D03*
X199822110Y-51275676D03*
D21*
X199711317Y-53813259D03*
D20*
X199600524Y-56350841D03*
X199489731Y-58888424D03*
X199378937Y-61426006D03*
X199268144Y-63963588D03*
X199157351Y-66501171D03*
X199046558Y-69038753D03*
X198935764Y-71576336D03*
X198824971Y-74113918D03*
X198714178Y-76651501D03*
X198603385Y-79189083D03*
X185915472Y-78635117D03*
X188453055Y-78745910D03*
X190990637Y-78856704D03*
X193528220Y-78967497D03*
X196065802Y-79078290D03*
X199932904Y-48738094D03*
X184707409Y-48073334D03*
D11*
X83179287Y-70513144D03*
D12*
X87913168Y-63937213D03*
D13*
X88638291Y-69842863D03*
D12*
X93144012Y-65511468D03*
D11*
X94097295Y-69172582D03*
D17*
X84662580Y-64336335D03*
D15*
X89357320Y-75698885D03*
X84138664Y-74223885D03*
D17*
X96394600Y-65112346D03*
D10*
X152033912Y-42269171D03*
D11*
X162727579Y-93083986D03*
D12*
X168481879Y-87379556D03*
D13*
X168222344Y-93323893D03*
D12*
X173381158Y-89795559D03*
D11*
X173717109Y-93563800D03*
D14*
X165209996Y-87236703D03*
D15*
X167964990Y-99218278D03*
X163061349Y-96902179D03*
D14*
X176653041Y-89938413D03*
D11*
X85299814Y-87783447D03*
D12*
X90033695Y-81207516D03*
D13*
X90758818Y-87113166D03*
D12*
X95264539Y-82781771D03*
D11*
X96217822Y-86442885D03*
D17*
X86783107Y-81606638D03*
D15*
X91477847Y-92969188D03*
X86259191Y-91494188D03*
D17*
X98515127Y-82382649D03*
D11*
X192910244Y-128991198D03*
D12*
X199724817Y-124607810D03*
D13*
X198235056Y-130368288D03*
D12*
X204014719Y-127989634D03*
D11*
X203559868Y-131745378D03*
D22*
X196554134Y-123787815D03*
D15*
X196757814Y-136080359D03*
X192442874Y-132795349D03*
D22*
X207185403Y-128809629D03*
D10*
X69753908Y-67023274D03*
D11*
X124927095Y-83023200D03*
D12*
X130427095Y-77073200D03*
D13*
X130427095Y-83023200D03*
D12*
X135427095Y-79273200D03*
D11*
X135927095Y-83023200D03*
D23*
X127152095Y-77073200D03*
D15*
X130427095Y-88923200D03*
X125427095Y-86823200D03*
D23*
X138702095Y-79273200D03*
D10*
X104980863Y-129092845D03*
D11*
X87420340Y-105053750D03*
D12*
X92154221Y-98477819D03*
D13*
X92879344Y-104383469D03*
D12*
X97385065Y-100052074D03*
D11*
X98338348Y-103713188D03*
D17*
X88903633Y-98876941D03*
D15*
X93598373Y-110239491D03*
X88379717Y-108764491D03*
D17*
X100635653Y-99652952D03*
D10*
X108766176Y-42301037D03*
X208943250Y-77685230D03*
D11*
X124927095Y-48223200D03*
D12*
X130427095Y-42273200D03*
D13*
X130427095Y-48223200D03*
D12*
X135427095Y-44473200D03*
D11*
X135927095Y-48223200D03*
D23*
X127152095Y-42273200D03*
D15*
X130427095Y-54123200D03*
X125427095Y-52023200D03*
D23*
X138702095Y-44473200D03*
D11*
X105775373Y-90323377D03*
D12*
X110956436Y-84093683D03*
D13*
X111267835Y-90035529D03*
D12*
X116064723Y-86028988D03*
D11*
X116760297Y-89747681D03*
D16*
X107685924Y-84265084D03*
D15*
X111576617Y-95927443D03*
X106473564Y-94092001D03*
D16*
X119335235Y-85857588D03*
D10*
X189706827Y-114781456D03*
D11*
X164245534Y-58317108D03*
D12*
X169999834Y-52612678D03*
D13*
X169740299Y-58557015D03*
D12*
X174899113Y-55028681D03*
D11*
X175235064Y-58796922D03*
D14*
X166727951Y-52469825D03*
D15*
X169482945Y-64451400D03*
X164579304Y-62135301D03*
D14*
X178170996Y-55171535D03*
D11*
X124927095Y-65623200D03*
D12*
X130427095Y-59673200D03*
D13*
X130427095Y-65623200D03*
D12*
X135427095Y-61873200D03*
D11*
X135927095Y-65623200D03*
D23*
X127152095Y-59673200D03*
D15*
X130427095Y-71523200D03*
X125427095Y-69423200D03*
D23*
X138702095Y-61873200D03*
M02*
