G04 #@! TF.GenerationSoftware,KiCad,Pcbnew,8.0.5-dirty*
G04 #@! TF.CreationDate,2024-10-14T15:43:55+03:00*
G04 #@! TF.ProjectId,Kivipallur_right,4b697669-7061-46c6-9c75-725f72696768,1*
G04 #@! TF.SameCoordinates,Original*
G04 #@! TF.FileFunction,Profile,NP*
%FSLAX46Y46*%
G04 Gerber Fmt 4.6, Leading zero omitted, Abs format (unit mm)*
G04 Created by KiCad (PCBNEW 8.0.5-dirty) date 2024-10-14 15:43:55*
%MOMM*%
%LPD*%
G01*
G04 APERTURE LIST*
G04 #@! TA.AperFunction,Profile*
%ADD10C,0.150000*%
G04 #@! TD*
G04 APERTURE END LIST*
D10*
X126476608Y-106514208D02*
X133257076Y-104360190D01*
X166571278Y-105532099D02*
X166571278Y-135283709D01*
X71510462Y-126317027D02*
X76240616Y-144607175D01*
X71510462Y-126317027D02*
G75*
G02*
X71469299Y-126115709I1936038J500727D01*
G01*
X68607130Y-107214527D02*
G75*
G02*
X68586486Y-107002323I1977970J299527D01*
G01*
X117208414Y-106988205D02*
X125958309Y-106606177D01*
X118111611Y-49093706D02*
X68155282Y-51274846D01*
X119858140Y-43067026D02*
X120022636Y-47012293D01*
X168571278Y-137283709D02*
G75*
G02*
X166571291Y-135283709I-78J1999909D01*
G01*
X66244423Y-53360181D02*
G75*
G02*
X68155281Y-51274820I1998077J87281D01*
G01*
X182815694Y-135565351D02*
G75*
G02*
X180835624Y-137283725I-1980094J281651D01*
G01*
X66244424Y-53360182D02*
X68586490Y-107002323D01*
X126476609Y-106514208D02*
G75*
G02*
X125958309Y-106606172I-605409J1905508D01*
G01*
X183934299Y-40983709D02*
X121856404Y-40983709D01*
X96527342Y-141423075D02*
X114321282Y-140646175D01*
X78682720Y-146041397D02*
X96108772Y-141486189D01*
X133814810Y-104266889D02*
X164523473Y-103532671D01*
X164523473Y-103532670D02*
G75*
G02*
X166571200Y-105532099I47727J-1999430D01*
G01*
X168571278Y-137283709D02*
X180835624Y-137283709D01*
X119858140Y-43067025D02*
G75*
G02*
X121856404Y-40983703I1998260J83325D01*
G01*
X116233039Y-138584703D02*
X115296657Y-109049678D01*
X217866978Y-119614832D02*
G75*
G02*
X215638151Y-121356151I-1984978J243632D01*
G01*
X116233038Y-138584702D02*
G75*
G02*
X114321285Y-140646245I-1998938J-63498D01*
G01*
X217866978Y-119614832D02*
X224179810Y-68200941D01*
X78682720Y-146041397D02*
G75*
G02*
X76240642Y-144607168I-505720J1935097D01*
G01*
X187312989Y-117878293D02*
X215638147Y-121356185D01*
X133257076Y-104360190D02*
G75*
G02*
X133814810Y-104266878I605524J-1905810D01*
G01*
X185089180Y-119581744D02*
G75*
G02*
X187312984Y-117878335I1980120J-281756D01*
G01*
X222438457Y-65972110D02*
G75*
G02*
X224179879Y-68200949I-243657J-1985090D01*
G01*
X183934299Y-40983709D02*
G75*
G02*
X185929903Y-43116006I101J-1999891D01*
G01*
X96108772Y-141486189D02*
G75*
G02*
X96527342Y-141423079I505928J-1935911D01*
G01*
X184846795Y-59454148D02*
X185929919Y-43116007D01*
X120022636Y-47012292D02*
G75*
G02*
X118111609Y-49093670I-1998236J-83308D01*
G01*
X182815695Y-135565352D02*
X185089180Y-119581743D01*
X222438456Y-65972110D02*
X186598676Y-61571538D01*
X186598675Y-61571538D02*
G75*
G02*
X184846734Y-59454144I243725J1985138D01*
G01*
X115296657Y-109049679D02*
G75*
G02*
X117208412Y-106988158I1999043J63379D01*
G01*
X68607130Y-107214526D02*
X71469301Y-126115709D01*
M02*
