M48
; DRILL file {KiCad 8.0.5-dirty} date 2024-10-14T15:44:45+0300
; FORMAT={-:-/ absolute / metric / decimal}
; #@! TF.CreationDate,2024-10-14T15:44:45+03:00
; #@! TF.GenerationSoftware,Kicad,Pcbnew,8.0.5-dirty
; #@! TF.FileFunction,NonPlated,1,2,NPTH
FMAT,2
METRIC
; #@! TA.AperFunction,NonPlated,NPTH,ComponentDrill
T1C0.800
; #@! TA.AperFunction,NonPlated,NPTH,ComponentDrill
T2C1.702
; #@! TA.AperFunction,NonPlated,NPTH,ComponentDrill
T3C3.000
; #@! TA.AperFunction,NonPlated,NPTH,ComponentDrill
T4C3.429
%
G90
G05
T1
X73.878Y-53.087
X74.183Y-60.081
T2
X79.439Y-135.006
X90.088Y-132.252
X99.353Y-130.79
X107.763Y-62.057
X108.522Y-79.441
X109.281Y-96.824
X110.343Y-130.31
X118.753Y-61.578
X119.512Y-78.961
X120.271Y-96.344
X126.059Y-59.257
X126.818Y-76.64
X127.577Y-94.024
X137.048Y-58.777
X137.807Y-76.16
X138.566Y-93.544
X147.071Y-51.484
X147.071Y-68.884
X147.071Y-86.284
X158.071Y-51.484
X158.071Y-68.884
X158.071Y-86.284
X166.238Y-93.008
X167.149Y-75.632
X168.059Y-58.256
X177.223Y-93.584
X178.134Y-76.208
X179.044Y-58.832
X184.66Y-106.974
X186.781Y-89.703
X188.901Y-72.433
X195.578Y-108.314
X197.699Y-91.044
X199.819Y-73.774
X204.02Y-100.283
X206.14Y-83.013
X214.938Y-101.624
X217.058Y-84.353
T3
X83.274Y-127.868
X88.665Y-128.746
X104.589Y-124.605
X109.68Y-126.585
X112.999Y-55.873
X113.758Y-73.257
X114.516Y-90.64
X118.09Y-57.853
X118.849Y-75.236
X119.608Y-92.62
X131.294Y-53.072
X132.053Y-70.456
X132.812Y-87.839
X136.385Y-55.052
X137.144Y-72.436
X137.903Y-89.819
X152.571Y-45.534
X152.571Y-62.934
X152.571Y-80.334
X157.571Y-47.734
X157.571Y-65.134
X157.571Y-82.534
X172.042Y-87.354
X172.953Y-69.978
X173.863Y-52.602
X176.92Y-89.813
X177.831Y-72.437
X178.741Y-55.061
X190.844Y-101.738
X192.965Y-84.468
X195.085Y-67.198
X195.539Y-104.531
X197.659Y-87.261
X199.78Y-69.991
X210.204Y-95.048
X212.324Y-77.778
X214.898Y-97.841
X217.019Y-80.57
T4
X84.763Y-133.629
X104.848Y-130.55
X113.258Y-61.818
X114.017Y-79.201
X114.776Y-96.584
X131.553Y-59.017
X132.312Y-76.4
X133.071Y-93.784
X152.571Y-51.484
X152.571Y-68.884
X152.571Y-86.284
X171.731Y-93.296
X172.641Y-75.92
X173.552Y-58.544
X190.119Y-107.644
X192.24Y-90.374
X194.36Y-73.103
X209.479Y-100.953
X211.599Y-83.683
M30
