M48
; DRILL file {KiCad 8.0.5-dirty} date 2024-10-14T15:44:45+0300
; FORMAT={-:-/ absolute / metric / decimal}
; #@! TF.CreationDate,2024-10-14T15:44:45+03:00
; #@! TF.GenerationSoftware,Kicad,Pcbnew,8.0.5-dirty
; #@! TF.FileFunction,Plated,1,2,PTH
FMAT,2
METRIC
; #@! TA.AperFunction,Plated,PTH,ViaDrill
T1C0.400
; #@! TA.AperFunction,Plated,PTH,ComponentDrill
T2C0.900
; #@! TA.AperFunction,Plated,PTH,ComponentDrill
T3C1.000
; #@! TA.AperFunction,Plated,PTH,ComponentDrill
T4C1.270
; #@! TA.AperFunction,Plated,PTH,ComponentDrill
T5C2.200
%
G90
G05
T1
X73.3Y-99.5
X79.8Y-60.9
X82.4Y-87.4
X82.4Y-99.8
X86.5Y-63.3
X103.3Y-54.9
X103.3Y-59.9
X106.2Y-52.0
X109.1Y-115.1
X120.8Y-105.5
X165.8Y-44.9
X183.9Y-64.2
X215.1Y-118.8
X220.8Y-69.3
T3
X83.35Y-51.919
X83.461Y-54.456
X83.572Y-56.994
X83.683Y-59.531
X83.793Y-62.069
X83.904Y-64.607
X84.015Y-67.144
X84.126Y-69.682
X84.237Y-72.219
X84.347Y-74.757
X84.458Y-77.295
X84.569Y-79.832
X84.68Y-82.37
X87.217Y-82.259
X89.755Y-82.148
X92.293Y-82.037
X94.83Y-81.927
X97.368Y-81.816
X98.576Y-51.254
X98.687Y-53.792
X98.797Y-56.329
X98.908Y-58.867
X99.019Y-61.404
X99.13Y-63.942
X99.24Y-66.479
X99.351Y-69.017
X99.462Y-71.555
X99.573Y-74.092
X99.684Y-76.63
X99.794Y-79.167
X99.905Y-81.705
X170.083Y-115.656
X170.083Y-118.196
X170.083Y-120.736
X170.083Y-123.276
X170.083Y-125.816
X170.083Y-128.356
X170.083Y-130.896
T4
X80.874Y-138.56
X86.241Y-139.341
X100.019Y-134.564
X105.105Y-136.444
X108.429Y-65.832
X109.188Y-83.215
X109.947Y-100.599
X113.515Y-67.712
X114.274Y-85.095
X115.033Y-102.479
X126.724Y-63.031
X127.483Y-80.415
X128.242Y-97.798
X131.811Y-64.911
X132.57Y-82.295
X133.329Y-99.678
X147.571Y-55.284
X147.571Y-72.684
X147.571Y-90.084
X152.571Y-57.384
X152.571Y-74.784
X152.571Y-92.184
X166.539Y-96.829
X167.449Y-79.453
X168.36Y-62.077
X171.422Y-99.188
X172.332Y-81.812
X173.243Y-64.436
X184.693Y-110.806
X186.814Y-93.536
X188.934Y-76.266
X189.4Y-113.5
X191.521Y-96.23
X193.641Y-78.959
X204.053Y-104.116
X206.173Y-86.845
X208.76Y-106.809
X210.88Y-89.539
T5
X74.055Y-80.946
X93.292Y-118.042
X130.964Y-45.53
X152.571Y-99.284
X174.232Y-45.562
X178.018Y-132.353
X207.833Y-114.353
X213.244Y-70.284
T2
X71.994Y-62.679G85X72.012Y-63.078
G05
X76.237Y-54.386G85X76.254Y-54.785
G05
X76.368Y-57.383G85X76.385Y-57.782
G05
X76.542Y-61.379G85X76.559Y-61.779
G05
M30
