G04 #@! TF.GenerationSoftware,KiCad,Pcbnew,8.0.5-dirty*
G04 #@! TF.CreationDate,2024-10-14T15:43:55+03:00*
G04 #@! TF.ProjectId,Kivipallur_right,4b697669-7061-46c6-9c75-725f72696768,1*
G04 #@! TF.SameCoordinates,Original*
G04 #@! TF.FileFunction,Soldermask,Top*
G04 #@! TF.FilePolarity,Negative*
%FSLAX46Y46*%
G04 Gerber Fmt 4.6, Leading zero omitted, Abs format (unit mm)*
G04 Created by KiCad (PCBNEW 8.0.5-dirty) date 2024-10-14 15:43:55*
%MOMM*%
%LPD*%
G01*
G04 APERTURE LIST*
G04 Aperture macros list*
%AMRoundRect*
0 Rectangle with rounded corners*
0 $1 Rounding radius*
0 $2 $3 $4 $5 $6 $7 $8 $9 X,Y pos of 4 corners*
0 Add a 4 corners polygon primitive as box body*
4,1,4,$2,$3,$4,$5,$6,$7,$8,$9,$2,$3,0*
0 Add four circle primitives for the rounded corners*
1,1,$1+$1,$2,$3*
1,1,$1+$1,$4,$5*
1,1,$1+$1,$6,$7*
1,1,$1+$1,$8,$9*
0 Add four rect primitives between the rounded corners*
20,1,$1+$1,$2,$3,$4,$5,0*
20,1,$1+$1,$4,$5,$6,$7,0*
20,1,$1+$1,$6,$7,$8,$9,0*
20,1,$1+$1,$8,$9,$2,$3,0*%
%AMHorizOval*
0 Thick line with rounded ends*
0 $1 width*
0 $2 $3 position (X,Y) of the first rounded end (center of the circle)*
0 $4 $5 position (X,Y) of the second rounded end (center of the circle)*
0 Add line between two ends*
20,1,$1,$2,$3,$4,$5,0*
0 Add two circle primitives to create the rounded ends*
1,1,$1,$2,$3*
1,1,$1,$4,$5*%
G04 Aperture macros list end*
%ADD10C,4.500000*%
%ADD11C,1.801800*%
%ADD12C,3.100000*%
%ADD13C,3.529000*%
%ADD14C,2.132000*%
%ADD15RoundRect,0.050000X-0.850000X-0.850000X0.850000X-0.850000X0.850000X0.850000X-0.850000X0.850000X0*%
%ADD16O,1.800000X1.800000*%
%ADD17RoundRect,0.475000X-1.303020X-0.532344X1.344458X-0.416752X1.303020X0.532344X-1.344458X0.416752X0*%
%ADD18C,1.900000*%
%ADD19RoundRect,0.475000X-0.453829X-0.495267X0.495267X-0.453829X0.453829X0.495267X-0.495267X0.453829X0*%
%ADD20RoundRect,0.475000X0.532344X-1.303020X0.416752X1.344458X-0.532344X1.303020X-0.416752X-1.344458X0*%
%ADD21RoundRect,0.475000X1.303020X0.532344X-1.344458X0.416752X-1.303020X-0.532344X1.344458X-0.416752X0*%
%ADD22C,0.900000*%
%ADD23HorizOval,1.700000X-0.008724X0.199810X0.008724X-0.199810X0*%
G04 APERTURE END LIST*
D10*
X152571278Y-99283709D03*
D11*
X108522287Y-79440870D03*
D12*
X113757517Y-73256626D03*
D13*
X114017052Y-79200963D03*
D12*
X118848720Y-75236435D03*
D11*
X119511817Y-78961056D03*
D14*
X114274406Y-85095348D03*
X109187565Y-83215443D03*
D11*
X167148722Y-75632036D03*
D12*
X172952583Y-69978038D03*
D13*
X172641184Y-75919884D03*
D12*
X177830592Y-72436703D03*
D11*
X178133646Y-76207732D03*
D14*
X172332402Y-81811798D03*
X167449160Y-79452996D03*
D11*
X109281264Y-96824309D03*
D12*
X114516494Y-90640065D03*
D13*
X114776029Y-96584402D03*
D12*
X119607697Y-92619874D03*
D11*
X120270794Y-96344495D03*
D14*
X115033383Y-102478787D03*
X109946542Y-100598882D03*
D11*
X107763310Y-62057431D03*
D12*
X112998540Y-55873187D03*
D13*
X113258075Y-61817524D03*
D12*
X118089743Y-57852996D03*
D11*
X118752840Y-61577617D03*
D14*
X113515429Y-67711909D03*
X108428588Y-65832004D03*
D11*
X147071278Y-68883709D03*
D12*
X152571278Y-62933709D03*
D13*
X152571278Y-68883709D03*
D12*
X157571278Y-65133709D03*
D11*
X158071278Y-68883709D03*
D14*
X152571278Y-74783709D03*
X147571278Y-72683709D03*
D10*
X207833466Y-114352832D03*
D11*
X147071278Y-86283709D03*
D12*
X152571278Y-80333709D03*
D13*
X152571278Y-86283709D03*
D12*
X157571278Y-82533709D03*
D11*
X158071278Y-86283709D03*
D14*
X152571278Y-92183709D03*
X147571278Y-90083709D03*
D11*
X166238076Y-93008190D03*
D12*
X172041937Y-87354192D03*
D13*
X171730538Y-93296038D03*
D12*
X176919946Y-89812857D03*
D11*
X177223000Y-93583886D03*
D14*
X171421756Y-99187952D03*
X166538514Y-96829150D03*
D11*
X99353364Y-130789686D03*
D12*
X104588594Y-124605442D03*
D13*
X104848129Y-130549779D03*
D12*
X109679797Y-126585251D03*
D11*
X110342894Y-130309872D03*
D14*
X105105483Y-136444164D03*
X100018642Y-134564259D03*
D11*
X186780552Y-89703394D03*
D12*
X192964679Y-84468025D03*
D13*
X192239556Y-90373675D03*
D12*
X197659297Y-87260974D03*
D11*
X197698560Y-91043956D03*
D14*
X191520527Y-96229697D03*
X186813722Y-93536004D03*
D11*
X127576513Y-94023616D03*
D12*
X132811743Y-87839372D03*
D13*
X133071278Y-93783709D03*
D12*
X137902946Y-89819181D03*
D11*
X138566043Y-93543802D03*
D14*
X133328632Y-99678094D03*
X128241791Y-97798189D03*
D11*
X188901078Y-72433091D03*
D12*
X195085205Y-67197722D03*
D13*
X194360082Y-73103372D03*
D12*
X199779823Y-69990671D03*
D11*
X199819086Y-73773653D03*
D14*
X193641053Y-78959394D03*
X188934248Y-76265701D03*
D11*
X184660025Y-106973697D03*
D12*
X190844152Y-101738328D03*
D13*
X190119029Y-107643978D03*
D12*
X195538770Y-104531277D03*
D11*
X195578033Y-108314259D03*
D14*
X189400000Y-113500000D03*
X184693195Y-110806307D03*
D11*
X206140225Y-83012875D03*
D12*
X212324352Y-77777506D03*
D13*
X211599229Y-83683156D03*
D12*
X217018970Y-80570455D03*
D11*
X217058233Y-84353437D03*
D14*
X210880200Y-89539178D03*
X206173395Y-86845485D03*
D10*
X74055123Y-80945739D03*
X93291547Y-118041965D03*
D15*
X170083140Y-115655621D03*
D16*
X170083140Y-118195621D03*
X170083140Y-120735621D03*
X170083140Y-123275621D03*
X170083140Y-125815621D03*
X170083140Y-128355621D03*
X170083140Y-130895621D03*
D11*
X168059367Y-58255882D03*
D12*
X173863228Y-52601884D03*
D13*
X173551829Y-58543730D03*
D12*
X178741237Y-55060549D03*
D11*
X179044291Y-58831578D03*
D14*
X173243047Y-64435644D03*
X168359805Y-62076842D03*
D11*
X147071278Y-51483709D03*
D12*
X152571278Y-45533709D03*
D13*
X152571278Y-51483709D03*
D12*
X157571278Y-47733709D03*
D11*
X158071278Y-51483709D03*
D14*
X152571278Y-57383709D03*
X147571278Y-55283709D03*
D17*
X82162267Y-54513002D03*
D18*
X83461030Y-54456297D03*
D17*
X82273060Y-57050585D03*
D18*
X83571823Y-56993880D03*
D17*
X82383855Y-59588167D03*
D19*
X83682616Y-59531462D03*
D17*
X82494647Y-62125750D03*
D19*
X83793409Y-62069045D03*
D17*
X82605440Y-64663332D03*
D18*
X83904203Y-64606627D03*
D17*
X82716233Y-67200915D03*
D18*
X84014996Y-67144209D03*
D17*
X82827026Y-69738497D03*
D18*
X84125789Y-69681792D03*
D17*
X82937820Y-72276080D03*
D18*
X84236582Y-72219374D03*
D17*
X83048613Y-74813662D03*
D18*
X84347376Y-74756957D03*
D17*
X83159406Y-77351245D03*
D18*
X84458169Y-77294539D03*
D17*
X83270199Y-79888827D03*
D18*
X84568962Y-79832122D03*
D17*
X83380993Y-82426410D03*
D18*
X84679755Y-82369704D03*
X98686525Y-53791538D03*
D17*
X99985287Y-53734832D03*
D19*
X98797318Y-56329120D03*
D17*
X100096081Y-56272415D03*
D18*
X98908111Y-58866703D03*
D17*
X100206874Y-58809997D03*
D18*
X99018904Y-61404285D03*
D17*
X100317667Y-61347580D03*
D18*
X99129698Y-63941868D03*
D17*
X100428460Y-63885162D03*
D18*
X99240491Y-66479450D03*
D17*
X100539254Y-66422745D03*
D18*
X99351284Y-69017033D03*
D17*
X100650047Y-68960327D03*
D18*
X99462077Y-71554615D03*
D17*
X100760840Y-71497910D03*
D18*
X99572871Y-74092197D03*
D17*
X100871633Y-74035492D03*
D18*
X99683664Y-76629780D03*
D17*
X100982425Y-76573075D03*
D18*
X99794457Y-79167362D03*
D17*
X101093220Y-79110657D03*
D18*
X99905250Y-81704945D03*
D17*
X101204013Y-81648240D03*
D18*
X87217338Y-82258911D03*
D20*
X87274043Y-83557674D03*
D18*
X89754920Y-82148118D03*
D20*
X89811626Y-83446881D03*
D18*
X92292503Y-82037325D03*
D20*
X92349208Y-83336087D03*
D18*
X94830085Y-81926531D03*
D20*
X94886791Y-83225294D03*
D18*
X97367668Y-81815738D03*
D20*
X97424373Y-83114501D03*
D18*
X98575731Y-51253955D03*
D21*
X99874494Y-51197250D03*
D17*
X82051474Y-51975420D03*
D18*
X83350236Y-51918715D03*
D11*
X126817536Y-76640177D03*
D12*
X132052766Y-70455933D03*
D13*
X132312301Y-76400270D03*
D12*
X137143969Y-72435742D03*
D11*
X137807066Y-76160363D03*
D14*
X132569655Y-82294655D03*
X127482814Y-80414750D03*
D10*
X213244465Y-70283783D03*
D22*
X73877804Y-53087283D03*
X74183140Y-60080621D03*
D23*
X76376264Y-57582580D03*
X76245406Y-54585436D03*
X72003101Y-62878373D03*
X76550742Y-61578773D03*
D10*
X174232197Y-45561546D03*
X178017511Y-132353354D03*
X130964461Y-45529680D03*
D11*
X126058558Y-59256738D03*
D12*
X131293788Y-53072494D03*
D13*
X131553323Y-59016831D03*
D12*
X136384991Y-55052303D03*
D11*
X137048088Y-58776924D03*
D14*
X131810677Y-64911216D03*
X126723836Y-63031311D03*
D11*
X204019698Y-100283178D03*
D12*
X210203825Y-95047809D03*
D13*
X209478702Y-100953459D03*
D12*
X214898443Y-97840758D03*
D11*
X214937706Y-101623740D03*
D14*
X208759673Y-106809481D03*
X204052868Y-104115788D03*
D11*
X79438506Y-135005887D03*
D12*
X83273557Y-127868319D03*
D13*
X84763318Y-133628797D03*
D12*
X88665131Y-128746343D03*
D11*
X90088130Y-132251707D03*
D14*
X86240560Y-139340868D03*
X80874024Y-138559658D03*
M02*
