G04 #@! TF.GenerationSoftware,KiCad,Pcbnew,8.0.5-dirty*
G04 #@! TF.CreationDate,2024-10-14T15:43:55+03:00*
G04 #@! TF.ProjectId,Kivipallur_right,4b697669-7061-46c6-9c75-725f72696768,1*
G04 #@! TF.SameCoordinates,Original*
G04 #@! TF.FileFunction,Legend,Top*
G04 #@! TF.FilePolarity,Positive*
%FSLAX46Y46*%
G04 Gerber Fmt 4.6, Leading zero omitted, Abs format (unit mm)*
G04 Created by KiCad (PCBNEW 8.0.5-dirty) date 2024-10-14 15:43:55*
%MOMM*%
%LPD*%
G01*
G04 APERTURE LIST*
G04 Aperture macros list*
%AMRoundRect*
0 Rectangle with rounded corners*
0 $1 Rounding radius*
0 $2 $3 $4 $5 $6 $7 $8 $9 X,Y pos of 4 corners*
0 Add a 4 corners polygon primitive as box body*
4,1,4,$2,$3,$4,$5,$6,$7,$8,$9,$2,$3,0*
0 Add four circle primitives for the rounded corners*
1,1,$1+$1,$2,$3*
1,1,$1+$1,$4,$5*
1,1,$1+$1,$6,$7*
1,1,$1+$1,$8,$9*
0 Add four rect primitives between the rounded corners*
20,1,$1+$1,$2,$3,$4,$5,0*
20,1,$1+$1,$4,$5,$6,$7,0*
20,1,$1+$1,$6,$7,$8,$9,0*
20,1,$1+$1,$8,$9,$2,$3,0*%
%AMHorizOval*
0 Thick line with rounded ends*
0 $1 width*
0 $2 $3 position (X,Y) of the first rounded end (center of the circle)*
0 $4 $5 position (X,Y) of the second rounded end (center of the circle)*
0 Add line between two ends*
20,1,$1,$2,$3,$4,$5,0*
0 Add two circle primitives to create the rounded ends*
1,1,$1,$2,$3*
1,1,$1,$4,$5*%
G04 Aperture macros list end*
%ADD10C,0.150000*%
%ADD11C,0.120000*%
%ADD12C,4.500000*%
%ADD13C,1.801800*%
%ADD14C,3.100000*%
%ADD15C,3.529000*%
%ADD16C,2.132000*%
%ADD17RoundRect,0.050000X-0.850000X-0.850000X0.850000X-0.850000X0.850000X0.850000X-0.850000X0.850000X0*%
%ADD18O,1.800000X1.800000*%
%ADD19RoundRect,0.475000X-1.303020X-0.532344X1.344458X-0.416752X1.303020X0.532344X-1.344458X0.416752X0*%
%ADD20C,1.900000*%
%ADD21RoundRect,0.475000X-0.453829X-0.495267X0.495267X-0.453829X0.453829X0.495267X-0.495267X0.453829X0*%
%ADD22RoundRect,0.475000X0.532344X-1.303020X0.416752X1.344458X-0.532344X1.303020X-0.416752X-1.344458X0*%
%ADD23RoundRect,0.475000X1.303020X0.532344X-1.344458X0.416752X-1.303020X-0.532344X1.344458X-0.416752X0*%
%ADD24C,0.900000*%
%ADD25HorizOval,1.700000X-0.008724X0.199810X0.008724X-0.199810X0*%
G04 APERTURE END LIST*
D10*
X106761998Y-73512009D02*
X106718379Y-72512961D01*
X107329050Y-86499636D02*
X107285431Y-85500588D01*
X107329050Y-86499636D02*
X108328098Y-86456017D01*
X107717427Y-72469342D02*
X106718379Y-72512961D01*
X120316677Y-85932584D02*
X121315725Y-85888965D01*
X120705054Y-71902290D02*
X119706006Y-71945909D01*
X120705054Y-71902290D02*
X120748673Y-72901338D01*
X121272106Y-84889917D02*
X121315725Y-85888965D01*
X165284426Y-82543939D02*
X165336765Y-81545310D01*
X165284426Y-82543939D02*
X166283055Y-82596275D01*
X165964793Y-69561755D02*
X166017129Y-68563126D01*
X167015758Y-68615465D02*
X166017129Y-68563126D01*
X178266610Y-83224303D02*
X179265239Y-83276642D01*
X179317575Y-82278013D02*
X179265239Y-83276642D01*
X179997942Y-69295829D02*
X178999313Y-69243493D01*
X179997942Y-69295829D02*
X179945603Y-70294458D01*
X107520975Y-90895448D02*
X107477356Y-89896400D01*
X108088027Y-103883075D02*
X108044408Y-102884027D01*
X108088027Y-103883075D02*
X109087075Y-103839456D01*
X108476404Y-89852781D02*
X107477356Y-89896400D01*
X121075654Y-103316023D02*
X122074702Y-103272404D01*
X121464031Y-89285729D02*
X120464983Y-89329348D01*
X121464031Y-89285729D02*
X121507650Y-90284777D01*
X122031083Y-102273356D02*
X122074702Y-103272404D01*
X106003021Y-56128570D02*
X105959402Y-55129522D01*
X106570073Y-69116197D02*
X106526454Y-68117149D01*
X106570073Y-69116197D02*
X107569121Y-69072578D01*
X106958450Y-55085903D02*
X105959402Y-55129522D01*
X119557700Y-68549145D02*
X120556748Y-68505526D01*
X119946077Y-54518851D02*
X118947029Y-54562470D01*
X119946077Y-54518851D02*
X119989696Y-55517899D01*
X120513129Y-67506478D02*
X120556748Y-68505526D01*
X145571278Y-62883709D02*
X145571278Y-61883709D01*
X145571278Y-75883709D02*
X145571278Y-74883709D01*
X145571278Y-75883709D02*
X146571278Y-75883709D01*
X146571278Y-61883709D02*
X145571278Y-61883709D01*
X158571278Y-75883709D02*
X159571278Y-75883709D01*
X159571278Y-61883709D02*
X158571278Y-61883709D01*
X159571278Y-61883709D02*
X159571278Y-62883709D01*
X159571278Y-74883709D02*
X159571278Y-75883709D01*
X145571278Y-80283709D02*
X145571278Y-79283709D01*
X145571278Y-93283709D02*
X145571278Y-92283709D01*
X145571278Y-93283709D02*
X146571278Y-93283709D01*
X146571278Y-79283709D02*
X145571278Y-79283709D01*
X158571278Y-93283709D02*
X159571278Y-93283709D01*
X159571278Y-79283709D02*
X158571278Y-79283709D01*
X159571278Y-79283709D02*
X159571278Y-80283709D01*
X159571278Y-92283709D02*
X159571278Y-93283709D01*
X164373780Y-99920093D02*
X164426119Y-98921464D01*
X164373780Y-99920093D02*
X165372409Y-99972429D01*
X165054147Y-86937909D02*
X165106483Y-85939280D01*
X166105112Y-85991619D02*
X165106483Y-85939280D01*
X177355964Y-100600457D02*
X178354593Y-100652796D01*
X178406929Y-99654167D02*
X178354593Y-100652796D01*
X179087296Y-86671983D02*
X178088667Y-86619647D01*
X179087296Y-86671983D02*
X179034957Y-87670612D01*
X97593075Y-124860825D02*
X97549456Y-123861777D01*
X98160127Y-137848452D02*
X98116508Y-136849404D01*
X98160127Y-137848452D02*
X99159175Y-137804833D01*
X98548504Y-123818158D02*
X97549456Y-123861777D01*
X111147754Y-137281400D02*
X112146802Y-137237781D01*
X111536131Y-123251106D02*
X110537083Y-123294725D01*
X111536131Y-123251106D02*
X111579750Y-124250154D01*
X112103183Y-136238733D02*
X112146802Y-137237781D01*
X184438649Y-96468413D02*
X184560517Y-95475867D01*
X184438649Y-96468413D02*
X185431194Y-96590282D01*
X186022949Y-83565313D02*
X186144818Y-82572768D01*
X187137364Y-82694636D02*
X186144818Y-82572768D01*
X197341748Y-98052714D02*
X198334294Y-98174582D01*
X198456163Y-97182037D02*
X198334294Y-98174582D01*
X200040463Y-84278937D02*
X199047918Y-84157068D01*
X200040463Y-84278937D02*
X199918595Y-85271483D01*
X125816224Y-88094755D02*
X125772605Y-87095707D01*
X126383276Y-101082382D02*
X126339657Y-100083334D01*
X126383276Y-101082382D02*
X127382324Y-101038763D01*
X126771653Y-87052088D02*
X125772605Y-87095707D01*
X139370903Y-100515330D02*
X140369951Y-100471711D01*
X139759280Y-86485036D02*
X138760232Y-86528655D01*
X139759280Y-86485036D02*
X139802899Y-87484084D01*
X140326332Y-99472663D02*
X140369951Y-100471711D01*
X186559175Y-79198110D02*
X186681043Y-78205564D01*
X186559175Y-79198110D02*
X187551720Y-79319979D01*
X188143475Y-66295010D02*
X188265344Y-65302465D01*
X189257890Y-65424333D02*
X188265344Y-65302465D01*
X199462274Y-80782411D02*
X200454820Y-80904279D01*
X200576689Y-79911734D02*
X200454820Y-80904279D01*
X202160989Y-67008634D02*
X201168444Y-66886765D01*
X202160989Y-67008634D02*
X202039121Y-68001180D01*
X182318122Y-113738716D02*
X182439990Y-112746170D01*
X182318122Y-113738716D02*
X183310667Y-113860585D01*
X183902422Y-100835616D02*
X184024291Y-99843071D01*
X185016837Y-99964939D02*
X184024291Y-99843071D01*
X195221221Y-115323017D02*
X196213767Y-115444885D01*
X196335636Y-114452340D02*
X196213767Y-115444885D01*
X197919936Y-101549240D02*
X196927391Y-101427371D01*
X197919936Y-101549240D02*
X197798068Y-102541786D01*
X203798322Y-89777894D02*
X203920190Y-88785348D01*
X203798322Y-89777894D02*
X204790867Y-89899763D01*
X205382622Y-76874794D02*
X205504491Y-75882249D01*
X206497037Y-76004117D02*
X205504491Y-75882249D01*
X216701421Y-91362195D02*
X217693967Y-91484063D01*
X217815836Y-90491518D02*
X217693967Y-91484063D01*
X219400136Y-77588418D02*
X218407591Y-77466549D01*
X219400136Y-77588418D02*
X219278268Y-78580964D01*
D11*
X168753140Y-114325621D02*
X170083140Y-114325621D01*
X168753140Y-115655621D02*
X168753140Y-114325621D01*
X168753140Y-116925621D02*
X168753140Y-132225621D01*
X168753140Y-116925621D02*
X171413140Y-116925621D01*
X168753140Y-132225621D02*
X171413140Y-132225621D01*
X171413140Y-116925621D02*
X171413140Y-132225621D01*
D10*
X166195071Y-65167785D02*
X166247410Y-64169156D01*
X166195071Y-65167785D02*
X167193700Y-65220121D01*
X166875438Y-52185601D02*
X166927774Y-51186972D01*
X167926403Y-51239311D02*
X166927774Y-51186972D01*
X179177255Y-65848149D02*
X180175884Y-65900488D01*
X180228220Y-64901859D02*
X180175884Y-65900488D01*
X180908587Y-51919675D02*
X179909958Y-51867339D01*
X180908587Y-51919675D02*
X180856248Y-52918304D01*
X145571278Y-45483709D02*
X145571278Y-44483709D01*
X145571278Y-58483709D02*
X145571278Y-57483709D01*
X145571278Y-58483709D02*
X146571278Y-58483709D01*
X146571278Y-44483709D02*
X145571278Y-44483709D01*
X158571278Y-58483709D02*
X159571278Y-58483709D01*
X159571278Y-44483709D02*
X158571278Y-44483709D01*
X159571278Y-44483709D02*
X159571278Y-45483709D01*
X159571278Y-57483709D02*
X159571278Y-58483709D01*
X86142543Y-83777238D02*
X84743876Y-83838305D01*
X99969371Y-83173546D02*
X98570703Y-83234613D01*
X84743876Y-83838305D02*
G75*
G02*
X83686638Y-83453502I-64112J1468626D01*
G01*
X100989048Y-82698063D02*
G75*
G02*
X99969371Y-83173546I-1083798J993118D01*
G01*
X125057247Y-70711316D02*
X125013628Y-69712268D01*
X125624299Y-83698943D02*
X125580680Y-82699895D01*
X125624299Y-83698943D02*
X126623347Y-83655324D01*
X126012676Y-69668649D02*
X125013628Y-69712268D01*
X138611926Y-83131891D02*
X139610974Y-83088272D01*
X139000303Y-69101597D02*
X138001255Y-69145216D01*
X139000303Y-69101597D02*
X139043922Y-70100645D01*
X139567355Y-82089224D02*
X139610974Y-83088272D01*
X70760916Y-51621845D02*
X71288711Y-63710329D01*
X76855110Y-51355767D02*
X70760916Y-51621845D01*
X76855110Y-51355767D02*
X77382905Y-63444250D01*
X77382905Y-63444250D02*
X71288711Y-63710329D01*
X124298269Y-53327877D02*
X124254650Y-52328829D01*
X124865321Y-66315504D02*
X124821702Y-65316456D01*
X124865321Y-66315504D02*
X125864369Y-66271885D01*
X125253698Y-52285210D02*
X124254650Y-52328829D01*
X137852948Y-65748452D02*
X138851996Y-65704833D01*
X138241325Y-51718158D02*
X137242277Y-51761777D01*
X138241325Y-51718158D02*
X138284944Y-52717206D01*
X138808377Y-64705785D02*
X138851996Y-65704833D01*
X201677795Y-107048197D02*
X201799663Y-106055651D01*
X201677795Y-107048197D02*
X202670340Y-107170066D01*
X203262095Y-94145097D02*
X203383964Y-93152552D01*
X204376510Y-93274420D02*
X203383964Y-93152552D01*
X214580894Y-108632498D02*
X215573440Y-108754366D01*
X215695309Y-107761821D02*
X215573440Y-108754366D01*
X217279609Y-94858721D02*
X216287064Y-94736852D01*
X217279609Y-94858721D02*
X217157741Y-95851267D01*
X76484004Y-129572571D02*
X76233624Y-128604424D01*
X77201772Y-128354044D02*
X76233624Y-128604424D01*
X79738945Y-142158491D02*
X79488565Y-141190343D01*
X79738945Y-142158491D02*
X80707092Y-141908111D01*
X89787691Y-125099103D02*
X88819544Y-125349483D01*
X89787691Y-125099103D02*
X90038071Y-126067251D01*
X92324864Y-138903550D02*
X93293012Y-138653170D01*
X93042632Y-137685023D02*
X93293012Y-138653170D01*
%LPC*%
D12*
X152571278Y-99283709D03*
D13*
X108522287Y-79440870D03*
D14*
X113757517Y-73256626D03*
D15*
X114017052Y-79200963D03*
D14*
X118848720Y-75236435D03*
D13*
X119511817Y-78961056D03*
D16*
X114274406Y-85095348D03*
X109187565Y-83215443D03*
D13*
X167148722Y-75632036D03*
D14*
X172952583Y-69978038D03*
D15*
X172641184Y-75919884D03*
D14*
X177830592Y-72436703D03*
D13*
X178133646Y-76207732D03*
D16*
X172332402Y-81811798D03*
X167449160Y-79452996D03*
D13*
X109281264Y-96824309D03*
D14*
X114516494Y-90640065D03*
D15*
X114776029Y-96584402D03*
D14*
X119607697Y-92619874D03*
D13*
X120270794Y-96344495D03*
D16*
X115033383Y-102478787D03*
X109946542Y-100598882D03*
D13*
X107763310Y-62057431D03*
D14*
X112998540Y-55873187D03*
D15*
X113258075Y-61817524D03*
D14*
X118089743Y-57852996D03*
D13*
X118752840Y-61577617D03*
D16*
X113515429Y-67711909D03*
X108428588Y-65832004D03*
D13*
X147071278Y-68883709D03*
D14*
X152571278Y-62933709D03*
D15*
X152571278Y-68883709D03*
D14*
X157571278Y-65133709D03*
D13*
X158071278Y-68883709D03*
D16*
X152571278Y-74783709D03*
X147571278Y-72683709D03*
D12*
X207833466Y-114352832D03*
D13*
X147071278Y-86283709D03*
D14*
X152571278Y-80333709D03*
D15*
X152571278Y-86283709D03*
D14*
X157571278Y-82533709D03*
D13*
X158071278Y-86283709D03*
D16*
X152571278Y-92183709D03*
X147571278Y-90083709D03*
D13*
X166238076Y-93008190D03*
D14*
X172041937Y-87354192D03*
D15*
X171730538Y-93296038D03*
D14*
X176919946Y-89812857D03*
D13*
X177223000Y-93583886D03*
D16*
X171421756Y-99187952D03*
X166538514Y-96829150D03*
D13*
X99353364Y-130789686D03*
D14*
X104588594Y-124605442D03*
D15*
X104848129Y-130549779D03*
D14*
X109679797Y-126585251D03*
D13*
X110342894Y-130309872D03*
D16*
X105105483Y-136444164D03*
X100018642Y-134564259D03*
D13*
X186780552Y-89703394D03*
D14*
X192964679Y-84468025D03*
D15*
X192239556Y-90373675D03*
D14*
X197659297Y-87260974D03*
D13*
X197698560Y-91043956D03*
D16*
X191520527Y-96229697D03*
X186813722Y-93536004D03*
D13*
X127576513Y-94023616D03*
D14*
X132811743Y-87839372D03*
D15*
X133071278Y-93783709D03*
D14*
X137902946Y-89819181D03*
D13*
X138566043Y-93543802D03*
D16*
X133328632Y-99678094D03*
X128241791Y-97798189D03*
D13*
X188901078Y-72433091D03*
D14*
X195085205Y-67197722D03*
D15*
X194360082Y-73103372D03*
D14*
X199779823Y-69990671D03*
D13*
X199819086Y-73773653D03*
D16*
X193641053Y-78959394D03*
X188934248Y-76265701D03*
D13*
X184660025Y-106973697D03*
D14*
X190844152Y-101738328D03*
D15*
X190119029Y-107643978D03*
D14*
X195538770Y-104531277D03*
D13*
X195578033Y-108314259D03*
D16*
X189400000Y-113500000D03*
X184693195Y-110806307D03*
D13*
X206140225Y-83012875D03*
D14*
X212324352Y-77777506D03*
D15*
X211599229Y-83683156D03*
D14*
X217018970Y-80570455D03*
D13*
X217058233Y-84353437D03*
D16*
X210880200Y-89539178D03*
X206173395Y-86845485D03*
D12*
X74055123Y-80945739D03*
X93291547Y-118041965D03*
D17*
X170083140Y-115655621D03*
D18*
X170083140Y-118195621D03*
X170083140Y-120735621D03*
X170083140Y-123275621D03*
X170083140Y-125815621D03*
X170083140Y-128355621D03*
X170083140Y-130895621D03*
D13*
X168059367Y-58255882D03*
D14*
X173863228Y-52601884D03*
D15*
X173551829Y-58543730D03*
D14*
X178741237Y-55060549D03*
D13*
X179044291Y-58831578D03*
D16*
X173243047Y-64435644D03*
X168359805Y-62076842D03*
D13*
X147071278Y-51483709D03*
D14*
X152571278Y-45533709D03*
D15*
X152571278Y-51483709D03*
D14*
X157571278Y-47733709D03*
D13*
X158071278Y-51483709D03*
D16*
X152571278Y-57383709D03*
X147571278Y-55283709D03*
D19*
X82162267Y-54513002D03*
D20*
X83461030Y-54456297D03*
D19*
X82273060Y-57050585D03*
D20*
X83571823Y-56993880D03*
D19*
X82383855Y-59588167D03*
D21*
X83682616Y-59531462D03*
D19*
X82494647Y-62125750D03*
D21*
X83793409Y-62069045D03*
D19*
X82605440Y-64663332D03*
D20*
X83904203Y-64606627D03*
D19*
X82716233Y-67200915D03*
D20*
X84014996Y-67144209D03*
D19*
X82827026Y-69738497D03*
D20*
X84125789Y-69681792D03*
D19*
X82937820Y-72276080D03*
D20*
X84236582Y-72219374D03*
D19*
X83048613Y-74813662D03*
D20*
X84347376Y-74756957D03*
D19*
X83159406Y-77351245D03*
D20*
X84458169Y-77294539D03*
D19*
X83270199Y-79888827D03*
D20*
X84568962Y-79832122D03*
D19*
X83380993Y-82426410D03*
D20*
X84679755Y-82369704D03*
X98686525Y-53791538D03*
D19*
X99985287Y-53734832D03*
D21*
X98797318Y-56329120D03*
D19*
X100096081Y-56272415D03*
D20*
X98908111Y-58866703D03*
D19*
X100206874Y-58809997D03*
D20*
X99018904Y-61404285D03*
D19*
X100317667Y-61347580D03*
D20*
X99129698Y-63941868D03*
D19*
X100428460Y-63885162D03*
D20*
X99240491Y-66479450D03*
D19*
X100539254Y-66422745D03*
D20*
X99351284Y-69017033D03*
D19*
X100650047Y-68960327D03*
D20*
X99462077Y-71554615D03*
D19*
X100760840Y-71497910D03*
D20*
X99572871Y-74092197D03*
D19*
X100871633Y-74035492D03*
D20*
X99683664Y-76629780D03*
D19*
X100982425Y-76573075D03*
D20*
X99794457Y-79167362D03*
D19*
X101093220Y-79110657D03*
D20*
X99905250Y-81704945D03*
D19*
X101204013Y-81648240D03*
D20*
X87217338Y-82258911D03*
D22*
X87274043Y-83557674D03*
D20*
X89754920Y-82148118D03*
D22*
X89811626Y-83446881D03*
D20*
X92292503Y-82037325D03*
D22*
X92349208Y-83336087D03*
D20*
X94830085Y-81926531D03*
D22*
X94886791Y-83225294D03*
D20*
X97367668Y-81815738D03*
D22*
X97424373Y-83114501D03*
D20*
X98575731Y-51253955D03*
D23*
X99874494Y-51197250D03*
D19*
X82051474Y-51975420D03*
D20*
X83350236Y-51918715D03*
D13*
X126817536Y-76640177D03*
D14*
X132052766Y-70455933D03*
D15*
X132312301Y-76400270D03*
D14*
X137143969Y-72435742D03*
D13*
X137807066Y-76160363D03*
D16*
X132569655Y-82294655D03*
X127482814Y-80414750D03*
D12*
X213244465Y-70283783D03*
D24*
X73877804Y-53087283D03*
X74183140Y-60080621D03*
D25*
X76376264Y-57582580D03*
X76245406Y-54585436D03*
X72003101Y-62878373D03*
X76550742Y-61578773D03*
D12*
X174232197Y-45561546D03*
X178017511Y-132353354D03*
X130964461Y-45529680D03*
D13*
X126058558Y-59256738D03*
D14*
X131293788Y-53072494D03*
D15*
X131553323Y-59016831D03*
D14*
X136384991Y-55052303D03*
D13*
X137048088Y-58776924D03*
D16*
X131810677Y-64911216D03*
X126723836Y-63031311D03*
D13*
X204019698Y-100283178D03*
D14*
X210203825Y-95047809D03*
D15*
X209478702Y-100953459D03*
D14*
X214898443Y-97840758D03*
D13*
X214937706Y-101623740D03*
D16*
X208759673Y-106809481D03*
X204052868Y-104115788D03*
D13*
X79438506Y-135005887D03*
D14*
X83273557Y-127868319D03*
D15*
X84763318Y-133628797D03*
D14*
X88665131Y-128746343D03*
D13*
X90088130Y-132251707D03*
D16*
X86240560Y-139340868D03*
X80874024Y-138559658D03*
%LPD*%
M02*
