G04 #@! TF.GenerationSoftware,KiCad,Pcbnew,8.0.5-dirty*
G04 #@! TF.CreationDate,2024-10-14T16:29:31+03:00*
G04 #@! TF.ProjectId,Kivipallur_PMW3360_breakout,4b697669-7061-46c6-9c75-725f504d5733,rev?*
G04 #@! TF.SameCoordinates,Original*
G04 #@! TF.FileFunction,Legend,Bot*
G04 #@! TF.FilePolarity,Positive*
%FSLAX46Y46*%
G04 Gerber Fmt 4.6, Leading zero omitted, Abs format (unit mm)*
G04 Created by KiCad (PCBNEW 8.0.5-dirty) date 2024-10-14 16:29:31*
%MOMM*%
%LPD*%
G01*
G04 APERTURE LIST*
%ADD10C,0.150000*%
%ADD11C,0.305001*%
%ADD12C,0.200000*%
%ADD13C,0.120000*%
%ADD14O,1.250000X1.250000*%
%ADD15R,1.250000X1.250000*%
%ADD16R,1.700000X1.700000*%
%ADD17O,1.700000X1.700000*%
G04 APERTURE END LIST*
D10*
X103138819Y-48340495D02*
X103948342Y-48340495D01*
X103948342Y-48340495D02*
X104043580Y-48388114D01*
X104043580Y-48388114D02*
X104091200Y-48435733D01*
X104091200Y-48435733D02*
X104138819Y-48530971D01*
X104138819Y-48530971D02*
X104138819Y-48721447D01*
X104138819Y-48721447D02*
X104091200Y-48816685D01*
X104091200Y-48816685D02*
X104043580Y-48864304D01*
X104043580Y-48864304D02*
X103948342Y-48911923D01*
X103948342Y-48911923D02*
X103138819Y-48911923D01*
X103234057Y-49340495D02*
X103186438Y-49388114D01*
X103186438Y-49388114D02*
X103138819Y-49483352D01*
X103138819Y-49483352D02*
X103138819Y-49721447D01*
X103138819Y-49721447D02*
X103186438Y-49816685D01*
X103186438Y-49816685D02*
X103234057Y-49864304D01*
X103234057Y-49864304D02*
X103329295Y-49911923D01*
X103329295Y-49911923D02*
X103424533Y-49911923D01*
X103424533Y-49911923D02*
X103567390Y-49864304D01*
X103567390Y-49864304D02*
X104138819Y-49292876D01*
X104138819Y-49292876D02*
X104138819Y-49911923D01*
D11*
X117806500Y-50910000D02*
G75*
G02*
X117501500Y-50910000I-152500J0D01*
G01*
X117501500Y-50910000D02*
G75*
G02*
X117806500Y-50910000I152500J0D01*
G01*
D12*
X116400000Y-48610000D02*
X116400000Y-49910000D01*
X116384000Y-66155200D02*
X105884000Y-66155200D01*
X116384000Y-64240800D02*
X116384000Y-66155200D01*
X115400000Y-47410000D02*
X116400000Y-48610000D01*
X105900000Y-50910000D02*
X105900000Y-47410000D01*
X105900000Y-47410000D02*
X115400000Y-47410000D01*
X105884000Y-65155200D02*
X105884000Y-66155200D01*
D13*
X102070000Y-72070000D02*
X102070000Y-74730000D01*
X102070000Y-72070000D02*
X117370000Y-72070000D01*
X102070000Y-74730000D02*
X117370000Y-74730000D01*
X117370000Y-72070000D02*
X117370000Y-74730000D01*
X119970000Y-73400000D02*
X119970000Y-74730000D01*
X119970000Y-74730000D02*
X118640000Y-74730000D01*
%LPC*%
D14*
X105700000Y-51800000D03*
X105700000Y-53580000D03*
X105700000Y-55360000D03*
X105700000Y-57140000D03*
X105700000Y-58920000D03*
X105700000Y-60700000D03*
X105700000Y-62480000D03*
X105700000Y-64260000D03*
X116400000Y-63370000D03*
X116400000Y-61590000D03*
X116400000Y-59810000D03*
X116400000Y-58030000D03*
X116400000Y-56250000D03*
X116400000Y-54470000D03*
X116400000Y-52690000D03*
D15*
X116400000Y-50910000D03*
D16*
X118640000Y-73400000D03*
D17*
X116100000Y-73400000D03*
X113560000Y-73400000D03*
X111020000Y-73400000D03*
X108480000Y-73400000D03*
X105940000Y-73400000D03*
X103400000Y-73400000D03*
%LPD*%
M02*
