G04 #@! TF.GenerationSoftware,KiCad,Pcbnew,8.0.5-dirty*
G04 #@! TF.CreationDate,2024-10-14T16:29:31+03:00*
G04 #@! TF.ProjectId,Kivipallur_PMW3360_breakout,4b697669-7061-46c6-9c75-725f504d5733,rev?*
G04 #@! TF.SameCoordinates,Original*
G04 #@! TF.FileFunction,Copper,L2,Bot*
G04 #@! TF.FilePolarity,Positive*
%FSLAX46Y46*%
G04 Gerber Fmt 4.6, Leading zero omitted, Abs format (unit mm)*
G04 Created by KiCad (PCBNEW 8.0.5-dirty) date 2024-10-14 16:29:31*
%MOMM*%
%LPD*%
G01*
G04 APERTURE LIST*
G04 #@! TA.AperFunction,ComponentPad*
%ADD10O,1.250000X1.250000*%
G04 #@! TD*
G04 #@! TA.AperFunction,ComponentPad*
%ADD11R,1.250000X1.250000*%
G04 #@! TD*
G04 #@! TA.AperFunction,ComponentPad*
%ADD12R,1.700000X1.700000*%
G04 #@! TD*
G04 #@! TA.AperFunction,ComponentPad*
%ADD13O,1.700000X1.700000*%
G04 #@! TD*
G04 #@! TA.AperFunction,ViaPad*
%ADD14C,0.600000*%
G04 #@! TD*
G04 #@! TA.AperFunction,Conductor*
%ADD15C,0.200000*%
G04 #@! TD*
G04 APERTURE END LIST*
D10*
X105700000Y-51800000D03*
X105700000Y-53580000D03*
X105700000Y-55360000D03*
X105700000Y-57140000D03*
X105700000Y-58920000D03*
X105700000Y-60700000D03*
X105700000Y-62480000D03*
X105700000Y-64260000D03*
X116400000Y-63370000D03*
X116400000Y-61590000D03*
X116400000Y-59810000D03*
X116400000Y-58030000D03*
X116400000Y-56250000D03*
X116400000Y-54470000D03*
X116400000Y-52690000D03*
D11*
X116400000Y-50910000D03*
D12*
X118640000Y-73400000D03*
D13*
X116100000Y-73400000D03*
X113560000Y-73400000D03*
X111020000Y-73400000D03*
X108480000Y-73400000D03*
X105940000Y-73400000D03*
X103400000Y-73400000D03*
D14*
X119800000Y-66800000D03*
X117600000Y-66800000D03*
X108200000Y-69200000D03*
X114600000Y-69200000D03*
X117900000Y-64800000D03*
X120300000Y-69800000D03*
X119500000Y-52200000D03*
X120600000Y-57700000D03*
X104100000Y-69700000D03*
X104000000Y-68200000D03*
X100900000Y-68200000D03*
D15*
X119800000Y-66800000D02*
X117600000Y-66800000D01*
X105940000Y-71540000D02*
X104100000Y-69700000D01*
X105940000Y-73400000D02*
X105940000Y-71540000D01*
X100900000Y-68200000D02*
X104000000Y-68200000D01*
G04 #@! TA.AperFunction,Conductor*
G36*
X106392539Y-50270185D02*
G01*
X106438294Y-50322989D01*
X106449500Y-50374500D01*
X106449500Y-50717667D01*
X106429815Y-50784706D01*
X106377011Y-50830461D01*
X106307853Y-50840405D01*
X106260223Y-50823094D01*
X106203834Y-50788180D01*
X106203827Y-50788176D01*
X106021820Y-50717667D01*
X106009327Y-50712827D01*
X105804293Y-50674500D01*
X105595707Y-50674500D01*
X105390673Y-50712827D01*
X105390670Y-50712827D01*
X105390670Y-50712828D01*
X105196172Y-50788176D01*
X105196171Y-50788177D01*
X105018827Y-50897985D01*
X104864683Y-51038505D01*
X104738981Y-51204961D01*
X104646007Y-51391677D01*
X104646006Y-51391681D01*
X104591605Y-51582883D01*
X104588923Y-51592308D01*
X104569678Y-51799999D01*
X104569678Y-51800000D01*
X104588923Y-52007691D01*
X104588923Y-52007693D01*
X104588924Y-52007696D01*
X104613755Y-52094967D01*
X104646007Y-52208322D01*
X104738981Y-52395038D01*
X104864683Y-52561495D01*
X104905126Y-52598363D01*
X104941408Y-52658074D01*
X104939647Y-52727921D01*
X104905126Y-52781637D01*
X104864683Y-52818504D01*
X104738981Y-52984961D01*
X104646007Y-53171677D01*
X104588923Y-53372308D01*
X104569678Y-53579999D01*
X104569678Y-53580000D01*
X104588923Y-53787691D01*
X104588923Y-53787693D01*
X104588924Y-53787696D01*
X104646006Y-53988319D01*
X104646007Y-53988322D01*
X104738981Y-54175038D01*
X104864683Y-54341495D01*
X104905126Y-54378363D01*
X104941408Y-54438074D01*
X104939647Y-54507921D01*
X104905126Y-54561637D01*
X104864683Y-54598504D01*
X104738981Y-54764961D01*
X104646007Y-54951677D01*
X104588923Y-55152308D01*
X104569678Y-55359999D01*
X104569678Y-55360000D01*
X104588923Y-55567691D01*
X104588923Y-55567693D01*
X104588924Y-55567696D01*
X104646006Y-55768319D01*
X104646007Y-55768322D01*
X104738981Y-55955038D01*
X104864683Y-56121495D01*
X104905126Y-56158363D01*
X104941408Y-56218074D01*
X104939647Y-56287921D01*
X104905126Y-56341637D01*
X104864683Y-56378504D01*
X104738981Y-56544961D01*
X104646007Y-56731677D01*
X104588923Y-56932308D01*
X104569678Y-57139999D01*
X104569678Y-57140000D01*
X104588923Y-57347691D01*
X104588923Y-57347693D01*
X104588924Y-57347696D01*
X104646006Y-57548319D01*
X104646007Y-57548322D01*
X104738981Y-57735038D01*
X104864683Y-57901495D01*
X104905126Y-57938363D01*
X104941408Y-57998074D01*
X104939647Y-58067921D01*
X104905126Y-58121637D01*
X104864683Y-58158504D01*
X104738981Y-58324961D01*
X104646007Y-58511677D01*
X104588923Y-58712308D01*
X104569678Y-58919999D01*
X104569678Y-58920000D01*
X104588923Y-59127691D01*
X104588923Y-59127693D01*
X104588924Y-59127696D01*
X104646006Y-59328319D01*
X104646007Y-59328322D01*
X104738981Y-59515038D01*
X104864683Y-59681495D01*
X104905126Y-59718363D01*
X104941408Y-59778074D01*
X104939647Y-59847921D01*
X104905126Y-59901637D01*
X104864683Y-59938504D01*
X104738981Y-60104961D01*
X104646007Y-60291677D01*
X104588923Y-60492308D01*
X104569678Y-60699999D01*
X104569678Y-60700000D01*
X104588923Y-60907691D01*
X104588923Y-60907693D01*
X104588924Y-60907696D01*
X104646006Y-61108319D01*
X104646007Y-61108322D01*
X104738981Y-61295038D01*
X104864683Y-61461495D01*
X104905126Y-61498363D01*
X104941408Y-61558074D01*
X104939647Y-61627921D01*
X104905126Y-61681637D01*
X104864683Y-61718504D01*
X104738981Y-61884961D01*
X104646007Y-62071677D01*
X104588923Y-62272308D01*
X104569678Y-62479999D01*
X104569678Y-62480000D01*
X104588923Y-62687691D01*
X104646007Y-62888322D01*
X104738981Y-63075038D01*
X104864683Y-63241495D01*
X104905126Y-63278363D01*
X104941408Y-63338074D01*
X104939647Y-63407921D01*
X104905126Y-63461637D01*
X104864683Y-63498504D01*
X104738981Y-63664961D01*
X104646007Y-63851677D01*
X104588923Y-64052308D01*
X104569678Y-64259999D01*
X104569678Y-64260000D01*
X104588923Y-64467691D01*
X104588923Y-64467693D01*
X104588924Y-64467696D01*
X104646006Y-64668319D01*
X104738981Y-64855038D01*
X104864682Y-65021493D01*
X105018829Y-65162016D01*
X105196172Y-65271823D01*
X105390673Y-65347173D01*
X105595707Y-65385500D01*
X105595710Y-65385500D01*
X105804290Y-65385500D01*
X105804293Y-65385500D01*
X106009327Y-65347173D01*
X106203828Y-65271823D01*
X106260222Y-65236904D01*
X106327582Y-65218349D01*
X106394282Y-65239157D01*
X106439144Y-65292722D01*
X106449500Y-65342332D01*
X106449500Y-66650172D01*
X106449500Y-66749828D01*
X106487636Y-66841897D01*
X106558103Y-66912364D01*
X106650172Y-66950500D01*
X106650174Y-66950500D01*
X115449826Y-66950500D01*
X115449828Y-66950500D01*
X115541897Y-66912364D01*
X115612364Y-66841897D01*
X115629720Y-66799996D01*
X116794435Y-66799996D01*
X116794435Y-66800003D01*
X116814630Y-66979249D01*
X116814631Y-66979254D01*
X116874211Y-67149523D01*
X116970184Y-67302262D01*
X117097738Y-67429816D01*
X117250478Y-67525789D01*
X117420745Y-67585368D01*
X117420750Y-67585369D01*
X117599996Y-67605565D01*
X117600000Y-67605565D01*
X117600004Y-67605565D01*
X117779249Y-67585369D01*
X117779252Y-67585368D01*
X117779255Y-67585368D01*
X117949522Y-67525789D01*
X118102262Y-67429816D01*
X118102267Y-67429810D01*
X118105097Y-67427555D01*
X118107275Y-67426665D01*
X118108158Y-67426111D01*
X118108255Y-67426265D01*
X118169783Y-67401145D01*
X118182412Y-67400500D01*
X119217588Y-67400500D01*
X119284627Y-67420185D01*
X119294903Y-67427555D01*
X119297736Y-67429814D01*
X119297738Y-67429816D01*
X119450478Y-67525789D01*
X119620745Y-67585368D01*
X119620750Y-67585369D01*
X119799996Y-67605565D01*
X119800000Y-67605565D01*
X119800004Y-67605565D01*
X119979249Y-67585369D01*
X119979252Y-67585368D01*
X119979255Y-67585368D01*
X120149522Y-67525789D01*
X120302262Y-67429816D01*
X120429816Y-67302262D01*
X120525789Y-67149522D01*
X120585368Y-66979255D01*
X120592905Y-66912363D01*
X120605565Y-66800003D01*
X120605565Y-66799996D01*
X120585369Y-66620750D01*
X120585368Y-66620745D01*
X120525788Y-66450476D01*
X120429815Y-66297737D01*
X120302262Y-66170184D01*
X120149523Y-66074211D01*
X119979254Y-66014631D01*
X119979249Y-66014630D01*
X119800004Y-65994435D01*
X119799996Y-65994435D01*
X119620750Y-66014630D01*
X119620745Y-66014631D01*
X119450476Y-66074211D01*
X119297736Y-66170185D01*
X119294903Y-66172445D01*
X119292724Y-66173334D01*
X119291842Y-66173889D01*
X119291744Y-66173734D01*
X119230217Y-66198855D01*
X119217588Y-66199500D01*
X118182412Y-66199500D01*
X118115373Y-66179815D01*
X118105097Y-66172445D01*
X118102263Y-66170185D01*
X118102262Y-66170184D01*
X118045496Y-66134515D01*
X117949523Y-66074211D01*
X117779254Y-66014631D01*
X117779249Y-66014630D01*
X117600004Y-65994435D01*
X117599996Y-65994435D01*
X117420750Y-66014630D01*
X117420745Y-66014631D01*
X117250476Y-66074211D01*
X117097737Y-66170184D01*
X116970184Y-66297737D01*
X116874211Y-66450476D01*
X116814631Y-66620745D01*
X116814630Y-66620750D01*
X116794435Y-66799996D01*
X115629720Y-66799996D01*
X115650500Y-66749828D01*
X115650500Y-64451743D01*
X115670185Y-64384704D01*
X115722989Y-64338949D01*
X115792147Y-64329005D01*
X115839778Y-64346316D01*
X115896398Y-64381373D01*
X115896407Y-64381378D01*
X116090801Y-64456687D01*
X116150000Y-64467753D01*
X116150000Y-63650330D01*
X116169745Y-63670075D01*
X116255255Y-63719444D01*
X116350630Y-63745000D01*
X116449370Y-63745000D01*
X116544745Y-63719444D01*
X116630255Y-63670075D01*
X116650000Y-63650330D01*
X116650000Y-64467753D01*
X116709198Y-64456687D01*
X116903592Y-64381378D01*
X116903607Y-64381371D01*
X117080867Y-64271617D01*
X117080869Y-64271615D01*
X117234945Y-64131157D01*
X117360590Y-63964776D01*
X117360595Y-63964768D01*
X117453525Y-63778139D01*
X117453528Y-63778133D01*
X117498520Y-63620000D01*
X116680330Y-63620000D01*
X116700075Y-63600255D01*
X116749444Y-63514745D01*
X116775000Y-63419370D01*
X116775000Y-63320630D01*
X116749444Y-63225255D01*
X116700075Y-63139745D01*
X116680330Y-63120000D01*
X117498520Y-63120000D01*
X117498520Y-63119999D01*
X117453528Y-62961866D01*
X117453525Y-62961860D01*
X117360595Y-62775231D01*
X117360590Y-62775223D01*
X117234945Y-62608842D01*
X117194502Y-62571974D01*
X117158220Y-62512263D01*
X117159981Y-62442415D01*
X117194500Y-62388702D01*
X117235318Y-62351493D01*
X117361019Y-62185038D01*
X117453994Y-61998319D01*
X117511076Y-61797696D01*
X117530322Y-61590000D01*
X117511076Y-61382304D01*
X117453994Y-61181681D01*
X117361019Y-60994962D01*
X117235318Y-60828507D01*
X117194873Y-60791637D01*
X117158592Y-60731927D01*
X117160351Y-60662080D01*
X117194874Y-60608362D01*
X117235318Y-60571493D01*
X117361019Y-60405038D01*
X117453994Y-60218319D01*
X117511076Y-60017696D01*
X117530322Y-59810000D01*
X117511076Y-59602304D01*
X117453994Y-59401681D01*
X117361019Y-59214962D01*
X117235318Y-59048507D01*
X117194873Y-59011637D01*
X117158592Y-58951927D01*
X117160351Y-58882080D01*
X117194874Y-58828362D01*
X117235318Y-58791493D01*
X117361019Y-58625038D01*
X117453994Y-58438319D01*
X117511076Y-58237696D01*
X117530322Y-58030000D01*
X117511076Y-57822304D01*
X117453994Y-57621681D01*
X117361019Y-57434962D01*
X117235318Y-57268507D01*
X117194873Y-57231637D01*
X117158592Y-57171927D01*
X117160351Y-57102080D01*
X117194874Y-57048362D01*
X117235318Y-57011493D01*
X117361019Y-56845038D01*
X117453994Y-56658319D01*
X117511076Y-56457696D01*
X117530322Y-56250000D01*
X117511076Y-56042304D01*
X117453994Y-55841681D01*
X117361019Y-55654962D01*
X117235318Y-55488507D01*
X117194873Y-55451637D01*
X117158592Y-55391927D01*
X117160351Y-55322080D01*
X117194874Y-55268362D01*
X117235318Y-55231493D01*
X117361019Y-55065038D01*
X117453994Y-54878319D01*
X117511076Y-54677696D01*
X117530322Y-54470000D01*
X117511076Y-54262304D01*
X117453994Y-54061681D01*
X117361019Y-53874962D01*
X117235318Y-53708507D01*
X117194873Y-53671637D01*
X117158592Y-53611927D01*
X117160351Y-53542080D01*
X117194874Y-53488362D01*
X117235318Y-53451493D01*
X117361019Y-53285038D01*
X117453994Y-53098319D01*
X117511076Y-52897696D01*
X117530322Y-52690000D01*
X117511076Y-52482304D01*
X117453994Y-52281681D01*
X117417464Y-52208319D01*
X117361022Y-52094967D01*
X117361016Y-52094958D01*
X117346182Y-52075315D01*
X117321489Y-52009955D01*
X117336053Y-51941620D01*
X117370821Y-51901322D01*
X117382546Y-51892546D01*
X117468796Y-51777331D01*
X117519091Y-51642483D01*
X117525500Y-51582873D01*
X117525499Y-50374499D01*
X117545184Y-50307461D01*
X117597987Y-50261706D01*
X117649499Y-50250500D01*
X121625500Y-50250500D01*
X121692539Y-50270185D01*
X121738294Y-50322989D01*
X121749500Y-50374500D01*
X121749500Y-74625500D01*
X121729815Y-74692539D01*
X121677011Y-74738294D01*
X121625500Y-74749500D01*
X119988377Y-74749500D01*
X119921338Y-74729815D01*
X119875583Y-74677011D01*
X119865639Y-74607853D01*
X119889111Y-74551188D01*
X119933352Y-74492089D01*
X119933354Y-74492086D01*
X119983596Y-74357379D01*
X119983598Y-74357372D01*
X119989999Y-74297844D01*
X119990000Y-74297827D01*
X119990000Y-73650000D01*
X119073012Y-73650000D01*
X119105925Y-73592993D01*
X119140000Y-73465826D01*
X119140000Y-73334174D01*
X119105925Y-73207007D01*
X119073012Y-73150000D01*
X119990000Y-73150000D01*
X119990000Y-72502172D01*
X119989999Y-72502155D01*
X119983598Y-72442627D01*
X119983596Y-72442620D01*
X119933354Y-72307913D01*
X119933350Y-72307906D01*
X119847190Y-72192812D01*
X119847187Y-72192809D01*
X119732093Y-72106649D01*
X119732086Y-72106645D01*
X119597379Y-72056403D01*
X119597372Y-72056401D01*
X119537844Y-72050000D01*
X118890000Y-72050000D01*
X118890000Y-72966988D01*
X118832993Y-72934075D01*
X118705826Y-72900000D01*
X118574174Y-72900000D01*
X118447007Y-72934075D01*
X118390000Y-72966988D01*
X118390000Y-72050000D01*
X117742155Y-72050000D01*
X117682627Y-72056401D01*
X117682620Y-72056403D01*
X117547913Y-72106645D01*
X117547906Y-72106649D01*
X117432812Y-72192809D01*
X117432809Y-72192812D01*
X117346649Y-72307906D01*
X117346645Y-72307913D01*
X117297578Y-72439470D01*
X117255707Y-72495404D01*
X117190242Y-72519821D01*
X117121969Y-72504969D01*
X117093715Y-72483819D01*
X117049366Y-72439470D01*
X116971401Y-72361505D01*
X116971397Y-72361502D01*
X116971396Y-72361501D01*
X116777834Y-72225967D01*
X116777830Y-72225965D01*
X116674855Y-72177947D01*
X116563663Y-72126097D01*
X116563659Y-72126096D01*
X116563655Y-72126094D01*
X116335413Y-72064938D01*
X116335403Y-72064936D01*
X116100001Y-72044341D01*
X116099999Y-72044341D01*
X115864596Y-72064936D01*
X115864586Y-72064938D01*
X115636344Y-72126094D01*
X115636335Y-72126098D01*
X115422171Y-72225964D01*
X115422169Y-72225965D01*
X115228597Y-72361505D01*
X115061505Y-72528597D01*
X114931575Y-72714158D01*
X114876998Y-72757783D01*
X114807500Y-72764977D01*
X114745145Y-72733454D01*
X114728425Y-72714158D01*
X114598494Y-72528597D01*
X114431402Y-72361506D01*
X114431395Y-72361501D01*
X114237834Y-72225967D01*
X114237830Y-72225965D01*
X114134855Y-72177947D01*
X114023663Y-72126097D01*
X114023659Y-72126096D01*
X114023655Y-72126094D01*
X113795413Y-72064938D01*
X113795403Y-72064936D01*
X113560001Y-72044341D01*
X113559999Y-72044341D01*
X113324596Y-72064936D01*
X113324586Y-72064938D01*
X113096344Y-72126094D01*
X113096335Y-72126098D01*
X112882171Y-72225964D01*
X112882169Y-72225965D01*
X112688597Y-72361505D01*
X112521505Y-72528597D01*
X112391575Y-72714158D01*
X112336998Y-72757783D01*
X112267500Y-72764977D01*
X112205145Y-72733454D01*
X112188425Y-72714158D01*
X112058494Y-72528597D01*
X111891402Y-72361506D01*
X111891395Y-72361501D01*
X111697834Y-72225967D01*
X111697830Y-72225965D01*
X111594855Y-72177947D01*
X111483663Y-72126097D01*
X111483659Y-72126096D01*
X111483655Y-72126094D01*
X111255413Y-72064938D01*
X111255403Y-72064936D01*
X111020001Y-72044341D01*
X111019999Y-72044341D01*
X110784596Y-72064936D01*
X110784586Y-72064938D01*
X110556344Y-72126094D01*
X110556335Y-72126098D01*
X110342171Y-72225964D01*
X110342169Y-72225965D01*
X110148597Y-72361505D01*
X109981505Y-72528597D01*
X109851575Y-72714158D01*
X109796998Y-72757783D01*
X109727500Y-72764977D01*
X109665145Y-72733454D01*
X109648425Y-72714158D01*
X109518494Y-72528597D01*
X109351402Y-72361506D01*
X109351395Y-72361501D01*
X109157834Y-72225967D01*
X109157830Y-72225965D01*
X109054855Y-72177947D01*
X108943663Y-72126097D01*
X108943659Y-72126096D01*
X108943655Y-72126094D01*
X108715413Y-72064938D01*
X108715403Y-72064936D01*
X108480001Y-72044341D01*
X108479999Y-72044341D01*
X108244596Y-72064936D01*
X108244586Y-72064938D01*
X108016344Y-72126094D01*
X108016335Y-72126098D01*
X107802171Y-72225964D01*
X107802169Y-72225965D01*
X107608597Y-72361505D01*
X107441505Y-72528597D01*
X107311575Y-72714158D01*
X107256998Y-72757783D01*
X107187500Y-72764977D01*
X107125145Y-72733454D01*
X107108425Y-72714158D01*
X106978494Y-72528597D01*
X106811402Y-72361506D01*
X106811395Y-72361501D01*
X106617831Y-72225965D01*
X106617826Y-72225962D01*
X106612091Y-72223288D01*
X106559653Y-72177113D01*
X106540500Y-72110908D01*
X106540500Y-71629059D01*
X106540501Y-71629046D01*
X106540501Y-71460945D01*
X106540501Y-71460943D01*
X106499577Y-71308215D01*
X106470639Y-71258095D01*
X106420520Y-71171284D01*
X106308716Y-71059480D01*
X106308715Y-71059479D01*
X106304385Y-71055149D01*
X106304374Y-71055139D01*
X104930700Y-69681465D01*
X104897215Y-69620142D01*
X104895163Y-69607686D01*
X104885368Y-69520745D01*
X104825789Y-69350478D01*
X104729816Y-69197738D01*
X104602262Y-69070184D01*
X104524892Y-69021569D01*
X104478601Y-68969234D01*
X104467953Y-68900180D01*
X104496328Y-68836332D01*
X104503159Y-68828918D01*
X104629816Y-68702262D01*
X104725789Y-68549522D01*
X104785368Y-68379255D01*
X104805565Y-68200000D01*
X104785368Y-68020745D01*
X104725789Y-67850478D01*
X104629816Y-67697738D01*
X104502262Y-67570184D01*
X104489766Y-67562332D01*
X104349523Y-67474211D01*
X104179254Y-67414631D01*
X104179249Y-67414630D01*
X104000004Y-67394435D01*
X103999996Y-67394435D01*
X103820750Y-67414630D01*
X103820745Y-67414631D01*
X103650476Y-67474211D01*
X103497736Y-67570185D01*
X103494903Y-67572445D01*
X103492724Y-67573334D01*
X103491842Y-67573889D01*
X103491744Y-67573734D01*
X103430217Y-67598855D01*
X103417588Y-67599500D01*
X101482412Y-67599500D01*
X101415373Y-67579815D01*
X101405097Y-67572445D01*
X101402263Y-67570185D01*
X101402262Y-67570184D01*
X101272575Y-67488696D01*
X101249523Y-67474211D01*
X101079254Y-67414631D01*
X101079249Y-67414630D01*
X100900004Y-67394435D01*
X100899996Y-67394435D01*
X100720750Y-67414630D01*
X100720745Y-67414631D01*
X100550476Y-67474211D01*
X100440472Y-67543332D01*
X100373235Y-67562332D01*
X100306400Y-67541964D01*
X100261186Y-67488696D01*
X100250500Y-67438338D01*
X100250500Y-50374500D01*
X100270185Y-50307461D01*
X100322989Y-50261706D01*
X100374500Y-50250500D01*
X106325500Y-50250500D01*
X106392539Y-50270185D01*
G37*
G04 #@! TD.AperFunction*
M02*
