G04 #@! TF.GenerationSoftware,KiCad,Pcbnew,8.0.5-dirty*
G04 #@! TF.CreationDate,2024-10-14T16:10:55+03:00*
G04 #@! TF.ProjectId,Kivipallur_plate,4b697669-7061-46c6-9c75-725f706c6174,1*
G04 #@! TF.SameCoordinates,Original*
G04 #@! TF.FileFunction,Profile,NP*
%FSLAX46Y46*%
G04 Gerber Fmt 4.6, Leading zero omitted, Abs format (unit mm)*
G04 Created by KiCad (PCBNEW 8.0.5-dirty) date 2024-10-14 16:10:55*
%MOMM*%
%LPD*%
G01*
G04 APERTURE LIST*
G04 #@! TA.AperFunction,Profile*
%ADD10C,0.150000*%
G04 #@! TD*
G04 APERTURE END LIST*
D10*
X152716688Y-77512965D02*
X214794583Y-77512965D01*
X170014612Y-173812965D02*
X155815363Y-173812965D01*
X257968268Y-182570653D02*
X240542215Y-178015445D01*
X149337998Y-154407550D02*
G75*
G02*
X151561731Y-156111010I243702J-1985050D01*
G01*
X151804192Y-95983404D02*
X150721068Y-79645263D01*
X132147689Y-100299206D02*
X150052311Y-98100794D01*
X150721068Y-79645263D02*
G75*
G02*
X152716688Y-77512990I1995632J132263D01*
G01*
X265140525Y-162846283D02*
X260410371Y-181136431D01*
X220376749Y-177090164D02*
G75*
G02*
X220333932Y-177087833I87051J1993564D01*
G01*
X114279709Y-179312965D02*
G75*
G02*
X112279735Y-177312965I-9J1999965D01*
G01*
X155815364Y-173812965D02*
G75*
G02*
X153835359Y-172094599I36J1999965D01*
G01*
X153835293Y-172094608D02*
X151561807Y-156110999D01*
X220333931Y-177087834D02*
X170144668Y-173817199D01*
X126156682Y-177393086D02*
G75*
G02*
X124158288Y-179312986I-1998382J80086D01*
G01*
X126900044Y-158852110D02*
X126156683Y-177393087D01*
X128210358Y-79173802D02*
X129911663Y-98489591D01*
X240123645Y-177952331D02*
X220376749Y-177090163D01*
X265181686Y-162644965D02*
G75*
G02*
X265140527Y-162846283I-1977186J299365D01*
G01*
X260410371Y-181136430D02*
G75*
G02*
X257968270Y-182570645I-1936271J500730D01*
G01*
X126194566Y-77349417D02*
G75*
G02*
X128210406Y-79173798I23534J-1999883D01*
G01*
X240123645Y-177952331D02*
G75*
G02*
X240542214Y-178015447I-87245J-1998069D01*
G01*
X218539377Y-85622962D02*
G75*
G02*
X216628373Y-83541550I87223J1998062D01*
G01*
X214794584Y-77512965D02*
G75*
G02*
X216792900Y-79596284I16J-2000035D01*
G01*
X268495706Y-87804103D02*
G75*
G02*
X270406596Y-89889439I-87206J-1998097D01*
G01*
X270406563Y-89889438D02*
X268064497Y-143531579D01*
X268064497Y-143531578D02*
G75*
G02*
X268043861Y-143743783I-1997897J87178D01*
G01*
X268043857Y-143743782D02*
X265181687Y-162644965D01*
X124158288Y-179312965D02*
X114279709Y-179312965D01*
X151804192Y-95983405D02*
G75*
G02*
X150052308Y-98100768I-1995592J-132295D01*
G01*
X112279709Y-79489597D02*
G75*
G02*
X114256204Y-77489747I1999991J-3D01*
G01*
X132147689Y-100299205D02*
G75*
G02*
X129911707Y-98489587I-243689J1985105D01*
G01*
X218539376Y-85622962D02*
X268495706Y-87804102D01*
X149337998Y-154407549D02*
X128654700Y-156947139D01*
X126900045Y-158852110D02*
G75*
G02*
X128654701Y-156947144I1998355J-80090D01*
G01*
X114256204Y-77489735D02*
X126194566Y-77349417D01*
X216792847Y-79596282D02*
X216628351Y-83541549D01*
X170014612Y-173812966D02*
G75*
G02*
X170144668Y-173817198I-12J-2000934D01*
G01*
X112279709Y-177312965D02*
X112279709Y-79489597D01*
M02*
